<?xml version="1.0" encoding="UTF-8"?>
<svg id="_레이어_1" data-name="레이어_1" xmlns="http://www.w3.org/2000/svg" version="1.1" viewBox="0 0 500 300">
  <!-- Generator: Adobe Illustrator 29.2.0, SVG Export Plug-In . SVG Version: 2.1.0 Build 108)  -->
  <defs>
    <style>
      .st0 {
        fill: none;
        stroke: #fff;
        stroke-linecap: round;
        stroke-linejoin: round;
        stroke-width: 10px;
      }

      .st1 {
        fill: #fff;
      }

      .st2 {
        fill: #ff9b45;
      }

      .st3 {
        fill: #333;
      }
    </style>
  </defs>
  <g>
    <path class="st0" d="M89.137,100.091H21.081c-4.184,0-7.596,3.421-7.596,7.596v84.625c0,4.184,3.421,7.596,7.596,7.596h68.056c4.184,0,7.605-3.421,7.605-7.596v-84.625c0-4.175-3.421-7.596-7.605-7.596Z"/>
    <path class="st0" d="M124.535,148.106c-5.081,0-8.002-2.218-8.96-6.457h-5.492c.778,5.792,4.9,10.717,14.085,10.717,9.051,0,13.536-4.6,13.536-10.626,0-4.767-1.928-8.794-12.363-11.318-6.293-1.512-8.254-2.801-8.254-6.054,0-3.307,2.385-5.177,6.589-5.177,5.201,0,7.081,2.619,7.683,5.672h5.491c-.496-4.889-4.122-9.942-12.992-9.942-8.231,0-12.368,4.394-12.368,9.986,0,5.086,2.882,8.154,11.723,10.287,7.105,1.708,8.894,3.611,8.894,7.137,0,3.298-2.166,5.774-7.572,5.774Z"/>
    <polygon class="st0" points="149.853 135.107 167.851 135.107 167.851 130.528 149.853 130.528 149.853 120.026 168.7 120.026 168.7 115.447 144.562 115.447 144.562 151.899 168.953 151.899 169.635 147.319 149.853 147.319 149.853 135.107"/>
    <path class="st0" d="M200.76,115.447l-6.495,18.082c-1.88,5.264-3.826,10.669-4.59,13.733h-.105c-.811-3.407-2.572-8.593-4.404-13.894l-6.232-17.921h-5.81l13.192,36.452h6.389l13.622-36.452h-5.567Z"/>
    <polygon class="st0" points="216.91 135.107 234.908 135.107 234.908 130.528 216.91 130.528 216.91 120.026 235.757 120.026 235.757 115.447 211.619 115.447 211.619 151.899 236.01 151.899 236.692 147.319 216.91 147.319 216.91 135.107"/>
    <path class="st0" d="M267.771,129.031c0,5.959-.03,11.817.334,16.331h-.076c-1.975-3.966-12.789-21.458-17.889-29.916h-7.037v36.452h5.081v-13.933c0-6.57-.019-12.996-.281-16.966h.076c2.195,4.112,13.575,23.137,18.221,30.899h6.627v-36.452h-5.056v13.584Z"/>
    <path class="st0" d="M316.108,132.527c2.734-.983,5.119-3.723,5.119-7.935,0-4.991-3.539-9.146-11.455-9.146h-14.356v36.452h14.733c7.07,0,12.249-3.969,12.249-10.721,0-5.249-3.762-7.822-6.29-8.651ZM300.727,119.835h8.773c4.047,0,6.304,2.127,6.304,5.249,0,3.368-1.962,5.371-6.954,5.371h-8.124v-10.621ZM309.372,147.51h-8.645v-12.664h7.887c5.802,0,8.22,2.51,8.22,6.275,0,4.309-2.944,6.39-7.462,6.39Z"/>
    <polygon class="st0" points="334.918 135.107 352.916 135.107 352.916 130.528 334.918 130.528 334.918 120.026 353.764 120.026 353.764 115.447 329.628 115.447 329.628 151.899 354.018 151.899 354.701 147.319 334.918 147.319 334.918 135.107"/>
    <path class="st0" d="M371.271,115.447l-12.869,36.452h5.368l3.717-10.459h14.313l3.847,10.459h5.744l-13.423-36.452h-6.698ZM368.819,136.86c2.662-7.888,4.737-13.967,5.629-17.153h.052c.807,2.871,2.667,7.929,5.974,17.153h-11.655Z"/>
    <path class="st0" d="M418.832,137.341c0,8.089-3.659,10.589-8.942,10.589-4.528,0-9.037-2.281-9.037-10.589v-21.894h-5.468v21.924c0,11.394,6.681,14.996,14.401,14.996,7.801,0,14.486-3.353,14.486-15.302v-21.618h-5.44v21.894Z"/>
    <polygon class="st0" points="429.71 120.026 441.353 120.026 441.353 151.899 446.791 151.899 446.791 120.026 458.439 120.026 458.439 115.447 429.71 115.447 429.71 120.026"/>
    <path class="st0" d="M487.735,115.447c-3.316,5.778-8.484,14.914-10.059,18.192-1.693-3.348-6.666-12.353-9.886-18.192h-6.169l12.787,22.167c.176.276.258.644.258,1.007v13.278h5.44v-13.264c0-.558.1-.746.228-.979l13.15-22.209h-5.75Z"/>
    <polygon class="st0" points="119.465 175.792 117.88 175.792 117.88 178.732 109.342 178.732 109.342 180.14 128.002 180.14 128.002 178.732 119.465 178.732 119.465 175.792"/>
    <path class="st0" d="M123.452,182.677c-1.108-.664-2.701-.996-4.78-.996s-3.671.332-4.779.996c-1.109.664-1.663,1.569-1.663,2.715,0,1.176.552,2.096,1.657,2.764,1.105.666,2.7,1,4.784,1s3.68-.334,4.785-1c1.105-.668,1.657-1.588,1.657-2.764,0-1.146-.555-2.051-1.663-2.715ZM122.258,187.186c-.827.43-2.022.645-3.586.645s-2.767-.215-3.591-.645-1.235-1.028-1.235-1.794c0-.749.404-1.335,1.215-1.756.809-.419,2.013-.631,3.611-.631s2.794.211,3.608.631c.812.421,1.22,1.007,1.22,1.756,0,.766-.414,1.363-1.241,1.794Z"/>
    <path class="st0" d="M115.133,173.869c-1.47.824-3.073,1.302-4.81,1.434l.917,1.25c1.675-.291,3.211-.816,4.607-1.573,1.397-.759,2.345-1.491,2.846-2.2.528.792,1.5,1.556,2.914,2.293s2.948,1.237,4.602,1.502l.813-1.272c-1.772-.16-3.386-.647-4.842-1.46s-2.341-1.69-2.653-2.626h6.401v-1.408h-14.511v1.408h6.421c-.334.944-1.235,1.829-2.705,2.652Z"/>
    <polygon class="st0" points="146.444 169.256 144.89 169.256 144.89 181.015 146.444 181.015 146.444 176.469 149.268 176.469 149.268 175.084 146.444 175.084 146.444 169.256"/>
    <path class="st0" d="M144.911,184.434h-9.309v-2.304h-1.532v7.026h12.374v-7.026h-1.533v2.304ZM144.911,187.791h-9.309v-2.012h9.309v2.012Z"/>
    <path class="st0" d="M140.475,179.826c.893-.681,1.34-1.528,1.34-2.543s-.447-1.862-1.34-2.545c-.893-.681-2.103-1.02-3.633-1.02s-2.74.339-3.633,1.02c-.893.683-1.34,1.53-1.34,2.545,0,1.028.441,1.879,1.324,2.554.882.673,2.091,1.011,3.628,1.011s2.76-.341,3.653-1.022ZM133.403,177.283c0-.64.305-1.174.917-1.601.611-.427,1.452-.642,2.523-.642s1.911.215,2.523.642c.612.427.917.961.917,1.601,0,.66-.309,1.198-.927,1.616s-1.456.625-2.512.625-1.894-.208-2.512-.625-.927-.955-.927-1.616Z"/>
    <polygon class="st0" points="142.732 171.352 137.562 171.352 137.562 168.974 136.009 168.974 136.009 171.352 130.837 171.352 130.837 172.717 142.732 172.717 142.732 171.352"/>
    <path class="st0" d="M153.428,183.454h9.57v-12.425h-9.57v12.425ZM154.991,172.394h6.443v9.695h-6.443v-9.695Z"/>
    <rect class="st0" x="166.99" y="169.256" width="1.553" height="20.11"/>
    <path class="st0" d="M187.037,176.219c1.376-.645,2.064-1.636,2.064-2.97,0-1.189-.553-2.109-1.658-2.758-1.105-.649-2.678-.974-4.722-.974s-3.617.325-4.722.974c-1.105.649-1.657,1.569-1.657,2.758,0,1.313.681,2.304,2.043,2.97v2.856h-4.993v1.387h18.66v-1.387h-5.014v-2.856ZM185.473,179.075h-5.525v-2.365c.862.18,1.786.271,2.773.271,1.064,0,1.981-.083,2.753-.25v2.344ZM186.302,175.021c-.789.425-1.983.636-3.582.636s-2.791-.211-3.581-.636c-.788-.423-1.183-1.015-1.183-1.771,0-1.606,1.589-2.409,4.764-2.409s4.764.803,4.764,2.409c0,.757-.394,1.348-1.182,1.771Z"/>
    <path class="st0" d="M187.5,182.803c-1.108-.664-2.701-.996-4.78-.996s-3.671.332-4.779.996c-1.109.664-1.663,1.578-1.663,2.747,0,1.154.551,2.061,1.652,2.721,1.102.658,2.699.989,4.79.989s3.689-.33,4.791-.989c1.101-.66,1.652-1.567,1.652-2.721,0-1.169-.555-2.083-1.663-2.747ZM186.328,187.307c-.813.419-2.016.631-3.608.631s-2.803-.211-3.611-.631c-.811-.421-1.215-1.007-1.215-1.756s.406-1.341,1.22-1.773c.813-.43,2.015-.645,3.607-.645s2.785.213,3.602.64c.817.428,1.225,1.02,1.225,1.779,0,.749-.407,1.335-1.22,1.756Z"/>
    <polygon class="st0" points="204.967 175.729 209.669 175.729 209.669 183.558 211.222 183.558 211.222 169.256 209.669 169.256 209.669 174.332 204.967 174.332 204.967 175.729"/>
    <polygon class="st0" points="200.401 182.13 198.838 182.13 198.838 188.709 211.753 188.709 211.753 187.342 200.401 187.342 200.401 182.13"/>
    <path class="st0" d="M200.953,175.594c.369.792.996,1.669,1.882,2.632.887.963,1.826,1.751,2.82,2.361l1.042-1.126c-1.285-.605-2.446-1.582-3.481-2.934-1.036-1.35-1.553-2.695-1.553-4.029v-.74h4.368v-1.417h-10.352v1.417h4.462v.74c0,1.46-.499,2.899-1.496,4.322-.998,1.421-2.212,2.493-3.644,3.214l1.126,1.074c.925-.521,1.862-1.339,2.815-2.454.952-1.117,1.623-2.135,2.012-3.06Z"/>
    <polygon class="st0" points="216.089 180.869 224.783 180.869 224.783 185.007 226.315 185.007 226.315 180.869 234.749 180.869 234.749 179.483 216.089 179.483 216.089 180.869"/>
    <path class="st0" d="M219.226,169.985v7.172h12.384v-7.172h-12.384ZM230.068,175.792h-9.299v-4.42h9.299v4.42Z"/>
    <polygon class="st0" points="220.592 182.703 219.039 182.703 219.039 188.729 232.101 188.729 232.101 187.342 220.592 187.342 220.592 182.703"/>
    <rect class="st0" x="253.002" y="169.256" width="1.585" height="20.11"/>
    <path class="st0" d="M249.437,176.688h-2.793v-5.681h-7.986v12.572h7.986v-5.503h2.793v10.57h1.532v-18.984h-1.532v7.026ZM245.079,182.173h-4.868v-9.778h4.868v9.778Z"/>
    <path class="st0" d="M265.063,170.58c-1.549,0-2.79.608-3.721,1.823-.931,1.217-1.397,2.892-1.397,5.025,0,2.107.471,3.776,1.411,5.01.942,1.233,2.178,1.851,3.706,1.851s2.778-.614,3.728-1.84c.948-1.228,1.423-2.901,1.423-5.021,0-2.133-.473-3.808-1.417-5.025-.946-1.215-2.191-1.823-3.734-1.823ZM267.654,181.39c-.677,1.007-1.541,1.512-2.591,1.512-1.055,0-1.922-.503-2.595-1.506s-1.011-2.326-1.011-3.967.334-2.968,1-3.966c.668-.998,1.536-1.497,2.606-1.497,1.078,0,1.948.497,2.612,1.491s.996,2.318.996,3.971c0,1.634-.339,2.955-1.016,3.962Z"/>
    <rect class="st0" x="273.945" y="169.256" width="1.564" height="20.11"/>
    <polygon class="st0" points="295.129 177.22 290.199 177.22 290.199 178.606 295.129 178.606 295.129 189.365 296.681 189.365 296.681 169.256 295.129 169.256 295.129 177.22"/>
    <path class="st0" d="M281.223,171.049v1.386h7.734c-.104,1.05-.362,2.081-.772,3.096l-7.964.492.553,1.501,6.818-.709c-.779,1.488-1.84,2.823-3.185,4.008s-2.682,2.035-4.008,2.548l1.167,1.261c5.907-3.363,8.927-7.892,9.059-13.583h-9.402Z"/>
  </g>
  <g>
    <g>
      <path class="st2" d="M96.742,192.313c0,4.175-3.421,7.596-7.605,7.596H21.081c-4.175,0-7.596-3.412-7.596-7.596v-84.625c0-4.175,3.412-7.596,7.596-7.596h68.056c4.184,0,7.605,3.421,7.605,7.596v84.625Z"/>
      <path class="st1" d="M42.825,112.091c0-.588-.465-1.07-1.053-1.07h-7.938c-.588,0-1.07.482-1.07,1.07v7.938c0,.596.482,1.079,1.07,1.079h7.938c.588,0,1.053-.482,1.053-1.079v-7.938Z"/>
      <path class="st1" d="M54.386,112.091c0-.588-.491-1.07-1.07-1.07h-7.938c-.596,0-1.07.482-1.07,1.07v7.938c0,.596.474,1.079,1.07,1.079h7.938c.579,0,1.07-.482,1.07-1.079v-7.938Z"/>
      <path class="st1" d="M42.825,123.607c0-.579-.465-1.061-1.053-1.061h-7.938c-.588,0-1.07.482-1.07,1.061v7.938c0,.588.482,1.079,1.07,1.079h7.938c.588,0,1.053-.491,1.053-1.079v-7.938Z"/>
      <path class="st1" d="M65.92,112.091c0-.588-.482-1.07-1.07-1.07h-7.938c-.579,0-1.079.482-1.079,1.07v7.938c0,.596.5,1.079,1.079,1.079h7.938c.588,0,1.07-.482,1.07-1.079v-7.938Z"/>
      <path class="st1" d="M67.385,131.545c0,.588.474,1.079,1.079,1.079h7.929c.588,0,1.079-.491,1.079-1.079v-7.938c0-.579-.491-1.061-1.079-1.061h-7.929c-.596,0-1.079.482-1.079,1.061,0,0,0,7.938,0,7.938Z"/>
      <path class="st1" d="M67.385,120.029c0,.596.474,1.079,1.079,1.079h7.929c.588,0,1.079-.482,1.079-1.079v-7.938c0-.588-.491-1.07-1.079-1.07h-7.929c-.596,0-1.079.482-1.079,1.07,0,0,0,7.938,0,7.938Z"/>
      <path class="st1" d="M67.244,146.149c0-.588-.474-1.061-1.07-1.061h-7.938c-.588,0-1.079.482-1.079,1.061v7.947c0,.579.482,1.07,1.079,1.07h7.938c.588,0,1.07-.491,1.07-1.07v-7.947Z"/>
      <path class="st1" d="M46.886,176.402c0,.588.491,1.07,1.061,1.07h7.947c.579,0,1.07-.482,1.07-1.07v-7.929c0-.588-.491-1.079-1.07-1.079h-7.947c-.57,0-1.061.491-1.061,1.079v7.929Z"/>
      <path class="st1" d="M56.973,156.973c0-.596-.491-1.079-1.07-1.079h-7.947c-.57,0-1.061.482-1.061,1.079v7.938c0,.57.491,1.053,1.061,1.053h7.947c.579,0,1.07-.482,1.07-1.053v-7.938Z"/>
      <path class="st1" d="M56.973,179.989c0-.596-.491-1.07-1.07-1.07h-7.947c-.57,0-1.061.474-1.061,1.07v7.929c0,.588.491,1.07,1.061,1.07h7.947c.579,0,1.07-.474,1.07-1.07v-7.929Z"/>
      <path class="st1" d="M67.385,143.053c0,.579.474,1.07,1.079,1.07h7.929c.588,0,1.079-.491,1.079-1.07v-7.938c0-.588-.491-1.07-1.079-1.07h-7.929c-.596,0-1.079.482-1.079,1.07,0,0,0,7.938,0,7.938Z"/>
    </g>
    <g>
      <path class="st3" d="M115.574,141.649c.959,4.238,3.879,6.457,8.96,6.457,5.406,0,7.572-2.476,7.572-5.774,0-3.526-1.789-5.429-8.894-7.137-8.841-2.133-11.723-5.201-11.723-10.287,0-5.592,4.137-9.986,12.368-9.986,8.87,0,12.496,5.052,12.992,9.942h-5.491c-.602-3.053-2.482-5.672-7.683-5.672-4.204,0-6.589,1.87-6.589,5.177,0,3.253,1.961,4.542,8.254,6.054,10.435,2.524,12.363,6.551,12.363,11.318,0,6.026-4.485,10.626-13.536,10.626-9.185,0-13.307-4.924-14.085-10.717h5.492Z"/>
      <path class="st3" d="M167.851,135.107h-17.998v12.212h19.782l-.682,4.579h-24.391v-36.452h24.138v4.579h-18.847v10.502h17.998v4.579Z"/>
      <path class="st3" d="M186.317,151.899l-13.192-36.452h5.81l6.232,17.921c1.833,5.301,3.593,10.487,4.404,13.894h.105c.763-3.064,2.71-8.469,4.59-13.733l6.495-18.082h5.567l-13.622,36.452h-6.389Z"/>
      <path class="st3" d="M234.908,135.107h-17.998v12.212h19.782l-.682,4.579h-24.391v-36.452h24.138v4.579h-18.847v10.502h17.998v4.579Z"/>
      <path class="st3" d="M243.102,151.899v-36.452h7.037c5.101,8.458,15.914,25.95,17.889,29.916h.076c-.364-4.515-.334-10.372-.334-16.331v-13.584h5.056v36.452h-6.627c-4.646-7.762-16.026-26.787-18.221-30.899h-.076c.262,3.969.281,10.396.281,16.966v13.933h-5.081Z"/>
      <path class="st3" d="M295.416,115.447h14.356c7.916,0,11.455,4.155,11.455,9.146,0,4.212-2.385,6.952-5.119,7.935,2.528.829,6.29,3.402,6.29,8.651,0,6.751-5.179,10.721-12.249,10.721h-14.733v-36.452ZM308.85,130.456c4.991,0,6.954-2.003,6.954-5.371,0-3.122-2.257-5.249-6.304-5.249h-8.773v10.621h8.124ZM300.727,147.51h8.645c4.518,0,7.462-2.081,7.462-6.39,0-3.765-2.419-6.275-8.22-6.275h-7.887v12.664Z"/>
      <path class="st3" d="M352.916,135.107h-17.999v12.212h19.783l-.683,4.579h-24.39v-36.452h24.136v4.579h-18.846v10.502h17.999v4.579Z"/>
      <path class="st3" d="M367.488,141.44l-3.717,10.459h-5.368l12.869-36.452h6.698l13.423,36.452h-5.744l-3.847-10.459h-14.313ZM380.475,136.86c-3.307-9.224-5.167-14.282-5.974-17.153h-.052c-.892,3.187-2.968,9.265-5.629,17.153h11.655Z"/>
      <path class="st3" d="M400.853,115.447v21.894c0,8.308,4.509,10.589,9.037,10.589,5.282,0,8.942-2.5,8.942-10.589v-21.894h5.44v21.618c0,11.949-6.685,15.302-14.486,15.302-7.72,0-14.401-3.602-14.401-14.996v-21.924h5.468Z"/>
      <path class="st3" d="M441.353,120.026h-11.642v-4.579h28.729v4.579h-11.648v31.873h-5.438v-31.873Z"/>
      <path class="st3" d="M474.666,151.899v-13.278c0-.364-.082-.731-.258-1.007l-12.787-22.167h6.169c3.22,5.839,8.193,14.844,9.886,18.192,1.575-3.277,6.742-12.414,10.059-18.192h5.75l-13.15,22.209c-.128.234-.228.421-.228.979v13.264h-5.44Z"/>
    </g>
    <g>
      <path class="st3" d="M109.342,180.14v-1.408h8.538v-2.94h1.585v2.94h8.538v1.408h-18.66ZM126.209,176.575c-1.654-.265-3.187-.766-4.602-1.502s-2.386-1.501-2.914-2.293c-.501.709-1.45,1.441-2.846,2.2-1.397.757-2.932,1.282-4.607,1.573l-.917-1.25c1.737-.132,3.34-.61,4.81-1.434s2.371-1.708,2.705-2.652h-6.421v-1.408h14.511v1.408h-6.401c.313.937,1.197,1.814,2.653,2.626s3.07,1.3,4.842,1.46l-.813,1.272ZM118.672,189.156c-2.085,0-3.68-.334-4.784-1-1.105-.668-1.657-1.588-1.657-2.764,0-1.146.554-2.051,1.663-2.715,1.108-.664,2.701-.996,4.779-.996s3.672.332,4.78.996,1.663,1.569,1.663,2.715c0,1.176-.553,2.096-1.657,2.764-1.105.666-2.7,1-4.785,1ZM118.672,183.005c-1.598,0-2.803.211-3.611.631-.811.421-1.215,1.007-1.215,1.756,0,.766.412,1.363,1.235,1.794s2.021.645,3.591.645,2.759-.215,3.586-.645,1.241-1.028,1.241-1.794c0-.749-.407-1.335-1.22-1.756-.813-.419-2.016-.631-3.608-.631Z"/>
      <path class="st3" d="M136.009,168.974h1.553v2.378h5.17v1.365h-11.895v-1.365h5.171v-2.378ZM136.822,180.848c-1.537,0-2.746-.338-3.628-1.011-.883-.675-1.324-1.526-1.324-2.554,0-1.015.447-1.862,1.34-2.545.892-.681,2.103-1.02,3.633-1.02s2.74.339,3.633,1.02c.893.683,1.34,1.53,1.34,2.545s-.447,1.862-1.34,2.543-2.111,1.022-3.653,1.022ZM136.842,175.041c-1.07,0-1.911.215-2.523.642-.612.427-.917.961-.917,1.601,0,.66.309,1.198.927,1.616s1.456.625,2.512.625,1.894-.208,2.512-.625.927-.955.927-1.616c0-.64-.305-1.174-.917-1.601-.611-.427-1.452-.642-2.523-.642ZM134.069,189.156v-7.026h1.532v2.304h9.309v-2.304h1.533v7.026h-12.374ZM144.911,185.778h-9.309v2.012h9.309v-2.012ZM146.444,176.469v4.546h-1.553v-11.759h1.553v5.828h2.825v1.386h-2.825Z"/>
      <path class="st3" d="M153.428,183.454v-12.425h9.57v12.425h-9.57ZM161.434,172.394h-6.443v9.695h6.443v-9.695ZM166.99,189.365v-20.11h1.553v20.11h-1.553Z"/>
      <path class="st3" d="M178.384,176.219c-1.362-.666-2.043-1.656-2.043-2.97,0-1.189.553-2.109,1.657-2.758,1.105-.649,2.679-.974,4.722-.974s3.618.325,4.722.974c1.105.649,1.658,1.569,1.658,2.758,0,1.334-.688,2.324-2.064,2.97v2.856h5.014v1.387h-18.66v-1.387h4.993v-2.856ZM182.72,189.26c-2.091,0-3.688-.33-4.79-.989-1.101-.66-1.652-1.567-1.652-2.721,0-1.169.554-2.083,1.663-2.747,1.108-.664,2.701-.996,4.779-.996s3.672.332,4.78.996,1.663,1.578,1.663,2.747c0,1.154-.551,2.061-1.652,2.721-1.102.658-2.699.989-4.791.989ZM182.72,183.131c-1.591,0-2.793.215-3.607.645-.813.432-1.22,1.022-1.22,1.773s.404,1.335,1.215,1.756c.809.419,2.013.631,3.611.631s2.794-.211,3.608-.631c.812-.421,1.22-1.007,1.22-1.756,0-.759-.408-1.35-1.225-1.779-.817-.427-2.017-.64-3.602-.64ZM182.72,170.84c-3.175,0-4.764.803-4.764,2.409,0,.757.395,1.348,1.183,1.771.789.425,1.983.636,3.581.636s2.792-.211,3.582-.636c.788-.423,1.182-1.015,1.182-1.771,0-1.606-1.588-2.409-4.764-2.409ZM179.948,179.075h5.525v-2.344c-.772.167-1.689.25-2.753.25-.987,0-1.91-.091-2.773-.271v2.365Z"/>
      <path class="st3" d="M205.655,180.587c-.994-.61-1.934-1.399-2.82-2.361-.886-.963-1.513-1.84-1.882-2.632-.389.926-1.059,1.944-2.012,3.06-.952,1.115-1.89,1.933-2.815,2.454l-1.126-1.074c1.432-.722,2.646-1.794,3.644-3.214.997-1.423,1.496-2.862,1.496-4.322v-.74h-4.462v-1.417h10.352v1.417h-4.368v.74c0,1.334.517,2.678,1.553,4.029,1.035,1.352,2.196,2.33,3.481,2.934l-1.042,1.126ZM198.838,188.709v-6.579h1.564v5.212h11.352v1.367h-12.916ZM209.669,183.558v-7.829h-4.702v-1.397h4.702v-5.077h1.553v14.302h-1.553Z"/>
      <path class="st3" d="M224.783,185.007v-4.138h-8.694v-1.386h18.66v1.386h-8.434v4.138h-1.532ZM219.039,188.729v-6.026h1.553v4.639h11.509v1.387h-13.062ZM219.226,177.157v-7.172h12.384v7.172h-12.384ZM230.068,171.372h-9.299v4.42h9.299v-4.42Z"/>
      <path class="st3" d="M238.658,183.578v-12.572h7.986v5.681h2.793v-7.026h1.532v18.984h-1.532v-10.57h-2.793v5.503h-7.986ZM245.079,172.394h-4.868v9.778h4.868v-9.778ZM253.002,189.365v-20.11h1.585v20.11h-1.585Z"/>
      <path class="st3" d="M265.063,184.289c-1.528,0-2.764-.618-3.706-1.851-.94-1.233-1.411-2.903-1.411-5.01,0-2.133.466-3.808,1.397-5.025.931-1.215,2.172-1.823,3.721-1.823s2.788.608,3.734,1.823c.944,1.217,1.417,2.892,1.417,5.025,0,2.12-.475,3.793-1.423,5.021-.95,1.226-2.192,1.84-3.728,1.84ZM265.063,171.966c-1.07,0-1.938.499-2.606,1.497-.666.998-1,2.318-1,3.966s.338,2.964,1.011,3.967,1.539,1.506,2.595,1.506c1.05,0,1.914-.505,2.591-1.512s1.016-2.328,1.016-3.962c0-1.653-.332-2.977-.996-3.971s-1.534-1.491-2.612-1.491ZM273.945,189.365v-20.11h1.564v20.11h-1.564Z"/>
      <path class="st3" d="M290.625,171.049c-.132,5.69-3.151,10.22-9.059,13.583l-1.167-1.261c1.326-.514,2.663-1.363,4.008-2.548s2.406-2.521,3.185-4.008l-6.818.709-.553-1.501,7.964-.492c.41-1.015.668-2.046.772-3.096h-7.734v-1.386h9.402ZM295.129,189.365v-10.76h-4.93v-1.386h4.93v-7.964h1.552v20.11h-1.552Z"/>
    </g>
  </g>
</svg>