<?xml version="1.0" encoding="UTF-8"?>
<svg id="_레이어_1" data-name="레이어_1" xmlns="http://www.w3.org/2000/svg" version="1.1" viewBox="0 0 500 300">
  <!-- Generator: Adobe Illustrator 29.2.0, SVG Export Plug-In . SVG Version: 2.1.0 Build 108)  -->
  <defs>
    <style>
      .st0 {
        fill: none;
        stroke: #fff;
        stroke-linecap: round;
        stroke-linejoin: round;
        stroke-width: 10px;
      }
    </style>
  </defs>
  <g>
    <path class="st0" d="M93.586,116.654h-39.209v16.112h19.932v.821c0,8.134-3.094,19.797-19.901,19.797-18.018,0-24.11-15.402-24.11-31.043,0-16.024,5.326-31.635,23.988-31.635,13.302,0,18.104,7.2,19.971,13.288h19.656c-2.204-15.499-15.971-28.701-39.362-28.701-28.654,0-44.552,20.585-44.552,47.91,0,25.888,14.742,45.831,41.128,45.831,12.635,0,21.512-3.692,26.549-10.485.247,3.045.743,6.17,1.503,8.964h14.406v-50.857Z"/>
    <path class="st0" d="M129.044,163.266c.019,1.096.271,3.386.607,4.245h11.494c-.252-1.047-.588-7.088-.588-11.226v-18.269c0-10.344-6.333-14.89-17.973-14.965-13.211-.073-17.985,6.177-18.638,13.897h11.44c.555-3.146,1.665-5.305,6.746-5.305,5.58,0,6.69,3.04,6.69,6.128v2.655h-6.201c-12.74,0-20.689,4.567-20.689,14.467,0,6.737,4.419,13.627,14.897,13.627,7.685,0,10.641-2.815,12.216-5.255ZM113.992,154.135c0-4.19,2.69-6.403,9.938-6.403h4.901v1.141c0,5.738-.94,11.055-8.585,11.055-4.324,0-6.255-2.652-6.255-5.794Z"/>
    <path class="st0" d="M173.643,123.052c-7.045,0-10.641,2.827-12.433,5.622v-22.439h-12.031v47.07c0,4.712,0,9.496-.083,14.208h11.504c.231-1.103.463-2.69.463-4.12,2.109,3.16,4.955,5.129,11.417,5.129,12.491,0,18.892-11.059,18.892-23.51,0-12.19-5.9-21.959-17.728-21.959ZM169.838,158.958c-7.01,0-9.176-5.62-9.176-12.94,0-8.854,2.438-13.329,9.31-13.329,6.497,0,9.19,5.312,9.19,12.553,0,8.214-3.21,13.716-9.324,13.716Z"/>
    <path class="st0" d="M215.211,140.426c-12.74,0-20.689,4.567-20.689,14.467,0,6.737,4.419,13.627,14.897,13.627,7.685,0,10.641-2.815,12.216-5.255.019,1.096.271,3.386.607,4.245h11.494c-.252-1.047-.588-7.088-.588-11.226v-18.269c0-10.344-6.333-14.89-17.973-14.965-13.211-.073-17.985,6.177-18.638,13.897h11.44c.555-3.146,1.665-5.305,6.746-5.305,5.58,0,6.69,3.04,6.69,6.128v2.655h-6.201ZM221.422,147.732v1.141c0,5.738-.94,11.055-8.585,11.055-4.324,0-6.255-2.652-6.255-5.794,0-4.19,2.69-6.403,9.938-6.403h4.901Z"/>
    <path class="st0" d="M268.848,141.206v26.306h12.03v-27.642c0-10.92-5.672-16.818-14.399-16.818-7.61,0-11.128,3.816-12.604,6.545-.066-1.397-.223-4.416-.466-5.536h-11.65c.083,3.21.083,7.252.083,10.946v32.505h12.033v-24.214c0-7.673,2.923-10.514,8.035-10.514,5.31,0,6.939,3.539,6.939,8.423Z"/>
    <path class="st0" d="M328.812,162.218v-25.69c0-4.177.021-8.593.094-12.468h-11.41c-.083.712-.39,3.353-.473,4.532-.658-2.029-3.758-5.542-11.215-5.542-10.864,0-19,9.296-19,22.883,0,11.68,6.521,21.058,17.97,21.058,6.382,0,9.98-2.345,12.245-6.104v2.074c0,8.519-1.468,13.279-9.277,13.279-4.642,0-6.841-2.029-7.687-5.014h-12.263c.418,4.903,3.546,13.766,19.41,13.766,16.459,0,21.606-8.825,21.606-22.775ZM308.229,157.284c-5.328,0-9.065-4.412-9.065-11.887,0-8.684,4.096-12.708,9.315-12.708,7.635,0,8.922,5.02,8.922,12.332s-1.931,12.263-9.173,12.263Z"/>
    <path class="st0" d="M355.624,168.52c12.952,0,18.043-7.809,19.539-15.05h-11.821c-1.072,3.268-3.288,5.71-7.422,5.71-5.265,0-8.564-4.218-8.564-13.469,0-8.425,3.118-13.246,8.616-13.246,4.698,0,6.706,2.474,7.447,6.013h11.744c-.237-4.915-4.308-15.428-18.961-15.428-13.227,0-21.053,10.218-21.053,23.05,0,13.058,6.953,22.419,20.475,22.419Z"/>
    <rect class="st0" x="380.275" y="106.234" width="12.03" height="61.278"/>
    <path class="st0" d="M439.108,154.887v-30.826h-12.03v23.127c0,8.604-2.269,11.527-7.756,11.527-5.206,0-6.695-3.964-6.695-8.762v-25.891h-12.019v28.303c0,10.773,5.655,16.157,14.507,16.157,5.55,0,9.388-1.66,11.964-6.02.073,1.517.157,3.845.327,5.011h11.786c-.073-3.887-.084-8.439-.084-12.625Z"/>
    <path class="st0" d="M489.871,145.011c0-12.19-5.898-21.959-17.726-21.959-7.043,0-10.641,2.827-12.433,5.622v-22.439h-12.033v47.07c0,4.712,0,9.496-.084,14.208h11.504c.233-1.103.463-2.69.463-4.12,2.109,3.16,4.959,5.129,11.417,5.129,12.492,0,18.892-11.059,18.892-23.51ZM459.166,146.018c0-8.854,2.436-13.329,9.308-13.329,6.497,0,9.19,5.312,9.19,12.553,0,8.214-3.208,13.716-9.322,13.716-7.012,0-9.176-5.62-9.176-12.94Z"/>
    <polygon class="st0" points="38.359 188.467 35.766 188.467 35.766 222.029 38.359 222.029 38.359 204.613 44.379 204.613 44.379 202.299 38.359 202.299 38.359 188.467"/>
    <path class="st0" d="M14.418,193.773h12.893c-.465,4.2-2.088,7.924-4.872,11.17-2.784,3.247-5.933,5.596-9.448,7.047l2.001,2.105c9.813-5.568,14.847-13.112,15.102-22.636h-15.677v2.314Z"/>
    <polygon class="st0" points="72.633 188.467 70.04 188.467 70.04 208.319 72.633 208.319 72.633 200.089 77.694 200.089 77.694 197.775 72.633 197.775 72.633 188.467"/>
    <path class="st0" d="M70.38,210.831c-1.884-1.107-4.59-1.66-8.117-1.66s-6.215.56-8.099,1.681c-1.884,1.117-2.827,2.61-2.827,4.479,0,1.903.945,3.421,2.836,4.548,1.891,1.134,4.588,1.698,8.091,1.698s6.203-.56,8.099-1.677c1.897-1.121,2.845-2.645,2.845-4.569,0-1.89-.943-3.389-2.827-4.499ZM68.361,218.264c-1.409.71-3.442,1.068-6.098,1.068-2.622,0-4.637-.355-6.046-1.061-1.409-.706-2.114-1.688-2.114-2.94,0-1.242.696-2.203,2.088-2.888,1.392-.686,3.415-1.027,6.072-1.027,2.692,0,4.732.344,6.124,1.037,1.392.689,2.088,1.649,2.088,2.878,0,1.242-.705,2.217-2.114,2.933Z"/>
    <path class="st0" d="M48.309,190.032v15.816h15.381v-15.816h-2.558v5.811h-10.265v-5.811h-2.558ZM61.132,198.123v5.446h-10.265v-5.446h10.265Z"/>
    <polygon class="st0" points="100.156 200.019 94.31 200.019 94.31 202.334 100.156 202.334 100.156 221.003 102.714 221.003 102.714 189.145 100.156 189.145 100.156 200.019"/>
    <path class="st0" d="M92.612,205.935c-1.361-2.773-2.043-5.557-2.043-8.352v-3.88h6.333v-2.314h-15.172v2.314h6.264v3.845c0,2.878-.759,5.822-2.279,8.828-1.521,3.013-3.264,5.213-5.237,6.605l2.036,1.635c1.496-1.427,2.895-3.194,4.204-5.307,1.301-2.112,2.147-3.991,2.53-5.637,1.194,4.037,3.295,7.534,6.298,10.492l1.966-1.688c-1.903-1.59-3.535-3.769-4.9-6.542Z"/>
    <rect class="st0" x="106.246" y="188.467" width="2.592" height="33.563"/>
    <polygon class="st0" points="140.835 188.467 138.243 188.467 138.243 207.884 140.835 207.884 140.835 200.019 145.898 200.019 145.898 197.653 140.835 197.653 140.835 188.467"/>
    <polygon class="st0" points="119.313 212.094 138.243 212.094 138.243 222.029 140.835 222.029 140.835 209.746 119.313 209.746 119.313 212.094"/>
    <path class="st0" d="M121.279,202.814c1.521-1.632,2.586-3.16,3.201-4.586,1.486,3.052,4.089,5.592,7.812,7.621l1.775-1.949c-2.366-.999-4.36-2.464-5.975-4.402-1.622-1.938-2.429-4.012-2.429-6.229v-.992h7.412v-2.314h-17.312v2.314h7.412v.992c0,2.286-.793,4.482-2.384,6.594s-3.647,3.8-6.177,5.063l1.862,1.757c1.681-.95,3.281-2.241,4.802-3.87Z"/>
    <polygon class="st0" points="187.148 212.338 187.148 188.467 184.555 188.467 184.555 196.94 176.708 196.94 176.708 199.271 184.555 199.271 184.555 212.338 187.148 212.338"/>
    <polygon class="st0" points="169.088 209.954 166.478 209.954 166.478 220.933 188.035 220.933 188.035 218.654 169.088 218.654 169.088 209.954"/>
    <path class="st0" d="M170.01,199.045c.616,1.322,1.66,2.787,3.142,4.395,1.475,1.604,3.045,2.92,4.705,3.939l1.74-1.879c-2.147-1.009-4.082-2.641-5.811-4.9-1.729-2.255-2.592-4.496-2.592-6.723v-1.235h7.29v-2.366h-17.277v2.366h7.447v1.235c0,2.436-.832,4.84-2.495,7.21-1.667,2.373-3.692,4.162-6.083,5.369l1.879,1.792c1.542-.87,3.107-2.234,4.698-4.099,1.59-1.858,2.707-3.563,3.358-5.105Z"/>
    <polygon class="st0" points="193.742 207.849 208.253 207.849 208.253 214.756 210.81 214.756 210.81 207.849 224.886 207.849 224.886 205.535 193.742 205.535 193.742 207.849"/>
    <path class="st0" d="M198.979,201.655h20.67v-11.97h-20.67v11.97ZM201.554,191.999h15.52v7.377h-15.52v-7.377Z"/>
    <polygon class="st0" points="201.258 210.911 198.666 210.911 198.666 220.968 220.467 220.968 220.467 218.654 201.258 218.654 201.258 210.911"/>
    <rect class="st0" x="252.794" y="188.467" width="2.592" height="33.563"/>
    <path class="st0" d="M230.332,193.878h12.945c-.546,4.291-2.182,8.031-4.907,11.222-2.725,3.191-5.863,5.522-9.413,6.994l1.984,2.105c4.826-2.679,8.532-5.957,11.118-9.841,2.586-3.877,3.922-8.143,4.002-12.795h-15.729v2.314Z"/>
    <path class="st0" d="M287.309,195.739h-5.776c-.289-2.063-1.225-3.727-2.801-4.987-1.576-1.256-3.469-1.886-5.672-1.886-2.495,0-4.531.772-6.107,2.324-1.576,1.545-2.366,3.452-2.366,5.714,0,2.286.793,4.2,2.384,5.742s3.619,2.314,6.09,2.314c2.217,0,4.113-.63,5.689-1.89,1.576-1.256,2.516-2.93,2.819-5.018h5.742v7.308h2.61v-16.86h-2.61v7.238ZM277.381,201.116c-1.082,1.089-2.523,1.635-4.322,1.635-1.775,0-3.205-.546-4.287-1.635-1.086-1.089-1.629-2.495-1.629-4.211,0-1.681.55-3.069,1.642-4.158,1.1-1.089,2.523-1.635,4.273-1.635,1.775,0,3.208.546,4.308,1.635,1.093,1.089,1.642,2.478,1.642,4.158,0,1.716-.543,3.121-1.629,4.211Z"/>
    <path class="st0" d="M287.343,212.303h-15.572v-5.098h-2.558v14.041h20.705v-14.041h-2.575v5.098ZM287.343,218.932h-15.572v-4.35h15.572v4.35Z"/>
    <path class="st0" d="M312.798,193.286c-3.678,4.339-5.516,9.622-5.516,15.85,0,6.184,1.837,11.372,5.516,15.572h2.471c-3.723-4.444-5.585-9.646-5.585-15.607s1.872-11.257,5.62-15.816h-2.505Z"/>
    <path class="st0" d="M326.094,197.497c-2.554,1.625-5.373,2.592-8.445,2.906l1.601,2.175c2.714-.442,5.303-1.42,7.77-2.94,2.464-1.521,4.103-3,4.913-4.437.87,1.472,2.547,2.944,5.039,4.412,2.485,1.465,5.06,2.384,7.715,2.756l1.531-2.105c-3.212-.303-6.072-1.235-8.578-2.801-2.505-1.566-3.957-3.375-4.35-5.429h10.753v-2.314h-24.219v2.314h10.718c-.407,2.018-1.886,3.838-4.447,5.463Z"/>
    <polygon class="st0" points="316.362 208.528 330.611 208.528 330.611 222.029 333.256 222.029 333.256 208.528 347.506 208.528 347.506 206.214 316.362 206.214 316.362 208.528"/>
    <path class="st0" d="M348.619,193.286c3.748,4.534,5.62,9.806,5.62,15.816,0,5.975-1.855,11.177-5.568,15.607h2.471c3.699-4.2,5.55-9.388,5.55-15.572,0-6.229-1.851-11.511-5.55-15.85h-2.523Z"/>
    <polygon class="st0" points="385.905 188.467 383.313 188.467 383.313 222.029 385.905 222.029 385.905 204.613 391.925 204.613 391.925 202.299 385.905 202.299 385.905 188.467"/>
    <path class="st0" d="M361.964,193.773h12.893c-.463,4.2-2.088,7.924-4.872,11.17-2.784,3.247-5.933,5.596-9.448,7.047l2.001,2.105c9.813-5.568,14.848-13.112,15.102-22.636h-15.676v2.314Z"/>
    <polygon class="st0" points="420.181 188.467 417.589 188.467 417.589 208.319 420.181 208.319 420.181 200.089 425.244 200.089 425.244 197.775 420.181 197.775 420.181 188.467"/>
    <path class="st0" d="M411.238,190.032h-2.558v5.811h-10.265v-5.811h-2.558v15.816h15.381v-15.816ZM408.681,203.569h-10.265v-5.446h10.265v5.446Z"/>
    <path class="st0" d="M417.926,210.831c-1.883-1.107-4.59-1.66-8.115-1.66s-6.215.56-8.101,1.681c-1.883,1.117-2.826,2.61-2.826,4.479,0,1.903.946,3.421,2.836,4.548,1.89,1.134,4.586,1.698,8.091,1.698s6.201-.56,8.101-1.677c1.893-1.121,2.843-2.645,2.843-4.569,0-1.89-.943-3.389-2.829-4.499ZM415.908,218.264c-1.406.71-3.442,1.068-6.097,1.068-2.62,0-4.635-.355-6.048-1.061-1.406-.706-2.112-1.688-2.112-2.94,0-1.242.696-2.203,2.088-2.888,1.392-.686,3.417-1.027,6.072-1.027,2.69,0,4.733.344,6.124,1.037,1.392.689,2.088,1.649,2.088,2.878,0,1.242-.703,2.217-2.116,2.933Z"/>
    <path class="st0" d="M454.576,189.25h-21.349v2.244h18.739v1.601l-.035,2.036-20.165.713.713,2.384,19.417-.992c-.104,2.933-.174,4.43-.209,4.489h-23.697v2.279h31.144v-2.279h-4.959c.268-2.725.4-6.883.4-12.475Z"/>
    <polygon class="st0" points="435.715 215.122 454.106 215.122 454.106 207.31 433.157 207.31 433.157 209.641 451.548 209.641 451.548 212.843 433.157 212.843 433.157 221.037 455.028 221.037 455.028 218.758 435.715 218.758 435.715 215.122"/>
    <polygon class="st0" points="487.39 188.467 487.39 196.522 481.196 196.522 481.196 198.802 487.39 198.802 487.39 206.457 490 206.457 490 188.467 487.39 188.467"/>
    <path class="st0" d="M482.553,204.613l-.365-2.21c-1.625.383-6.305.574-14.041.574v-4.506h11.414v-8.752h-14.006v2.279h11.362v4.193h-11.362v9.065c5.766,0,9.611-.038,11.546-.111,1.928-.077,3.748-.254,5.453-.532Z"/>
    <path class="st0" d="M487.425,212.634h-15.503v-4.315h-2.558v12.788h20.635v-12.788h-2.575v4.315ZM487.425,218.828h-15.503v-3.915h15.503v3.915Z"/>
  </g>
  <g>
    <g>
      <path d="M93.587,167.511h-14.406c-.76-2.794-1.256-5.919-1.503-8.964-5.037,6.793-13.914,10.485-26.549,10.485-26.386,0-41.128-19.943-41.128-45.831,0-27.325,15.897-47.91,44.552-47.91,23.391,0,37.157,13.202,39.362,28.701h-19.656c-1.867-6.088-6.669-13.288-19.971-13.288-18.662,0-23.988,15.61-23.988,31.635,0,15.642,6.091,31.043,24.11,31.043,16.807,0,19.901-11.663,19.901-19.797v-.821h-19.932v-16.111h39.209v50.857Z"/>
      <path d="M140.557,156.285c0,4.137.336,10.178.588,11.226h-11.494c-.336-.86-.588-3.149-.607-4.245-1.575,2.439-4.531,5.254-12.216,5.254-10.478,0-14.897-6.89-14.897-13.627,0-9.9,7.95-14.467,20.689-14.467h6.201v-2.655c0-3.088-1.11-6.128-6.69-6.128-5.081,0-6.191,2.159-6.746,5.305h-11.44c.652-7.72,5.427-13.97,18.638-13.897,11.64.075,17.973,4.621,17.973,14.965v18.269ZM128.832,147.732h-4.901c-7.248,0-9.938,2.213-9.938,6.403,0,3.142,1.931,5.794,6.255,5.794,7.645,0,8.585-5.317,8.585-11.055v-1.141Z"/>
      <path d="M149.178,106.234h12.031v22.439c1.792-2.794,5.388-5.622,12.433-5.622,11.828,0,17.728,9.77,17.728,21.959,0,12.451-6.401,23.51-18.892,23.51-6.462,0-9.308-1.97-11.417-5.129,0,1.43-.231,3.017-.463,4.12h-11.504c.084-4.712.084-9.496.084-14.208v-47.07ZM179.162,145.242c0-7.241-2.693-12.553-9.19-12.553-6.873,0-9.31,4.475-9.31,13.329,0,7.32,2.166,12.94,9.176,12.94,6.114,0,9.324-5.502,9.324-13.716Z"/>
      <path d="M233.147,156.285c0,4.137.336,10.178.588,11.226h-11.494c-.336-.86-.588-3.149-.607-4.245-1.575,2.439-4.531,5.254-12.216,5.254-10.478,0-14.897-6.89-14.897-13.627,0-9.9,7.95-14.467,20.689-14.467h6.201v-2.655c0-3.088-1.11-6.128-6.69-6.128-5.081,0-6.191,2.159-6.746,5.305h-11.44c.652-7.72,5.427-13.97,18.638-13.897,11.64.075,17.973,4.621,17.973,14.965v18.269ZM221.422,147.732h-4.901c-7.248,0-9.938,2.213-9.938,6.403,0,3.142,1.931,5.794,6.255,5.794,7.645,0,8.585-5.317,8.585-11.055v-1.141Z"/>
      <path d="M241.842,135.006c0-3.694,0-7.736-.084-10.946h11.65c.244,1.12.4,4.139.466,5.536,1.475-2.73,4.994-6.546,12.604-6.546,8.727,0,14.399,5.898,14.399,16.818v27.642h-12.03v-26.306c0-4.884-1.629-8.423-6.939-8.423-5.112,0-8.035,2.841-8.035,10.514v24.214h-12.033v-32.505Z"/>
      <path d="M328.812,162.218c0,13.951-5.147,22.775-21.606,22.775-15.864,0-18.993-8.863-19.41-13.766h12.263c.846,2.986,3.045,5.014,7.687,5.014,7.809,0,9.277-4.76,9.277-13.279v-2.074c-2.265,3.758-5.863,6.104-12.245,6.104-11.449,0-17.97-9.378-17.97-21.058,0-13.587,8.136-22.883,19-22.883,7.457,0,10.558,3.513,11.215,5.542.084-1.18.39-3.821.473-4.532h11.41c-.073,3.875-.094,8.291-.094,12.468v25.69ZM299.164,145.397c0,7.475,3.737,11.887,9.065,11.887,7.241,0,9.173-4.973,9.173-12.263s-1.288-12.332-8.922-12.332c-5.22,0-9.315,4.024-9.315,12.708Z"/>
      <path d="M375.163,153.47c-1.496,7.241-6.587,15.05-19.539,15.05-13.522,0-20.475-9.361-20.475-22.419,0-12.832,7.826-23.05,21.053-23.05,14.653,0,18.725,10.512,18.961,15.428h-11.744c-.741-3.539-2.749-6.013-7.447-6.013-5.498,0-8.616,4.821-8.616,13.246,0,9.251,3.299,13.469,8.564,13.469,4.134,0,6.351-2.443,7.422-5.71h11.821Z"/>
      <path d="M380.275,167.511v-61.278h12.03v61.278h-12.03Z"/>
      <path d="M439.108,154.887c0,4.186.01,8.738.084,12.625h-11.786c-.171-1.166-.254-3.494-.327-5.011-2.575,4.36-6.413,6.02-11.964,6.02-8.853,0-14.507-5.383-14.507-16.157v-28.303h12.019v25.891c0,4.799,1.489,8.762,6.695,8.762,5.488,0,7.756-2.923,7.756-11.527v-23.127h12.03v30.826Z"/>
      <path d="M447.679,106.234h12.033v22.439c1.792-2.794,5.39-5.622,12.433-5.622,11.828,0,17.726,9.77,17.726,21.959,0,12.451-6.399,23.51-18.892,23.51-6.459,0-9.308-1.97-11.417-5.129,0,1.43-.23,3.017-.463,4.12h-11.504c.084-4.712.084-9.496.084-14.208v-47.07ZM477.664,145.242c0-7.241-2.693-12.553-9.19-12.553-6.873,0-9.308,4.475-9.308,13.329,0,7.32,2.164,12.94,9.176,12.94,6.114,0,9.322-5.502,9.322-13.716Z"/>
    </g>
    <g>
      <path d="M30.094,191.459c-.256,9.524-5.289,17.068-15.102,22.636l-2.001-2.105c3.515-1.451,6.664-3.8,9.448-7.047s4.407-6.97,4.872-11.17h-12.893v-2.314h15.676ZM38.359,204.613v17.416h-2.592v-33.563h2.592v13.832h6.02v2.314h-6.02Z"/>
      <path d="M48.309,205.848v-15.816h2.558v5.811h10.265v-5.811h2.558v15.816h-15.381ZM61.132,198.123h-10.265v5.446h10.265v-5.446ZM62.263,221.577c-3.502,0-6.199-.564-8.091-1.698-1.891-1.127-2.836-2.645-2.836-4.548,0-1.869.943-3.361,2.827-4.479,1.884-1.12,4.585-1.681,8.099-1.681s6.232.553,8.117,1.66c1.884,1.11,2.827,2.61,2.827,4.499,0,1.924-.948,3.448-2.845,4.569-1.896,1.117-4.597,1.677-8.099,1.677ZM62.263,211.416c-2.657,0-4.68.341-6.072,1.027s-2.088,1.646-2.088,2.888c0,1.253.705,2.234,2.114,2.94s3.424,1.061,6.046,1.061c2.657,0,4.689-.358,6.098-1.068,1.409-.717,2.114-1.691,2.114-2.933,0-1.228-.696-2.189-2.088-2.878-1.392-.692-3.433-1.037-6.124-1.037ZM72.633,200.089v8.23h-2.592v-19.852h2.592v9.308h5.061v2.314h-5.061Z"/>
      <path d="M95.546,214.165c-3.003-2.958-5.105-6.455-6.298-10.492-.383,1.646-1.228,3.525-2.53,5.637-1.308,2.112-2.707,3.88-4.204,5.307l-2.036-1.636c1.973-1.392,3.716-3.591,5.237-6.605,1.521-3.007,2.279-5.95,2.279-8.828v-3.845h-6.264v-2.314h15.172v2.314h-6.333v3.88c0,2.794.682,5.578,2.043,8.352,1.364,2.773,2.996,4.952,4.9,6.542l-1.966,1.688ZM100.156,221.003v-18.669h-5.846v-2.314h5.846v-10.874h2.558v31.858h-2.558ZM106.246,222.029v-33.563h2.592v33.563h-2.592Z"/>
      <path d="M132.292,205.848c-3.723-2.029-6.326-4.569-7.812-7.621-.616,1.427-1.681,2.954-3.201,4.586-1.521,1.629-3.121,2.92-4.802,3.87l-1.862-1.757c2.53-1.263,4.586-2.951,6.177-5.063s2.384-4.308,2.384-6.594v-.992h-7.412v-2.314h17.312v2.314h-7.412v.992c0,2.217.807,4.291,2.429,6.229,1.615,1.938,3.609,3.403,5.975,4.402l-1.775,1.949ZM138.243,222.029v-9.935h-18.93v-2.349h21.523v12.284h-2.592ZM140.835,200.02v7.864h-2.592v-19.417h2.592v9.187h5.063v2.366h-5.063Z"/>
      <path d="M177.857,207.379c-1.66-1.02-3.229-2.335-4.705-3.939-1.482-1.608-2.526-3.073-3.142-4.395-.651,1.542-1.768,3.247-3.358,5.105-1.59,1.865-3.156,3.229-4.698,4.099l-1.879-1.792c2.391-1.207,4.416-2.996,6.083-5.369,1.663-2.37,2.495-4.774,2.495-7.21v-1.235h-7.447v-2.366h17.277v2.366h-7.29v1.235c0,2.227.863,4.468,2.592,6.723,1.729,2.258,3.664,3.89,5.811,4.9l-1.74,1.879ZM166.478,220.933v-10.979h2.61v8.699h18.948v2.279h-21.557ZM184.555,212.338v-13.067h-7.847v-2.331h7.847v-8.473h2.592v23.871h-2.592Z"/>
      <path d="M208.253,214.756v-6.907h-14.511v-2.314h31.144v2.314h-14.076v6.907h-2.558ZM198.666,220.968v-10.057h2.592v7.743h19.208v2.314h-21.801ZM198.979,201.655v-11.971h20.67v11.971h-20.67ZM217.074,191.999h-15.52v7.377h15.52v-7.377Z"/>
      <path d="M246.061,191.564c-.08,4.652-1.416,8.919-4.002,12.795-2.585,3.883-6.291,7.161-11.118,9.841l-1.983-2.105c3.549-1.472,6.688-3.803,9.413-6.994,2.725-3.191,4.36-6.932,4.907-11.222h-12.945v-2.314h15.729ZM252.794,222.029v-33.563h2.592v33.563h-2.592Z"/>
      <path d="M281.567,198.053c-.303,2.088-1.242,3.762-2.819,5.018-1.576,1.26-3.473,1.89-5.689,1.89-2.471,0-4.499-.773-6.09-2.314s-2.384-3.455-2.384-5.742c0-2.262.79-4.169,2.366-5.714,1.576-1.552,3.612-2.325,6.107-2.325,2.203,0,4.096.63,5.672,1.886,1.576,1.26,2.512,2.923,2.801,4.987h5.776v-7.238h2.61v16.86h-2.61v-7.308h-5.742ZM273.059,191.111c-1.75,0-3.174.546-4.273,1.636-1.093,1.089-1.642,2.478-1.642,4.158,0,1.716.543,3.121,1.629,4.211,1.082,1.089,2.512,1.636,4.287,1.636,1.799,0,3.24-.546,4.322-1.636,1.086-1.089,1.629-2.495,1.629-4.211,0-1.681-.55-3.069-1.642-4.158-1.1-1.089-2.533-1.636-4.308-1.636ZM269.214,221.246v-14.041h2.558v5.098h15.572v-5.098h2.575v14.041h-20.705ZM287.343,214.582h-15.572v4.35h15.572v-4.35Z"/>
      <path d="M312.798,224.709c-3.678-4.2-5.515-9.388-5.515-15.572,0-6.229,1.837-11.511,5.515-15.85h2.505c-3.748,4.559-5.62,9.83-5.62,15.816s1.862,11.163,5.585,15.607h-2.471Z"/>
      <path d="M333.256,208.528v13.502h-2.645v-13.502h-14.25v-2.314h31.144v2.314h-14.25ZM344.687,202.368c-2.655-.372-5.23-1.291-7.715-2.756-2.492-1.468-4.169-2.94-5.039-4.412-.811,1.437-2.45,2.916-4.913,4.437-2.467,1.521-5.056,2.498-7.77,2.94l-1.601-2.175c3.073-.313,5.891-1.281,8.445-2.906,2.561-1.625,4.04-3.445,4.447-5.463h-10.718v-2.314h24.219v2.314h-10.753c.393,2.053,1.844,3.863,4.35,5.428s5.366,2.498,8.578,2.801l-1.531,2.105Z"/>
      <path d="M348.671,224.709c3.713-4.43,5.568-9.632,5.568-15.607,0-6.01-1.872-11.282-5.62-15.816h2.523c3.699,4.339,5.55,9.622,5.55,15.85,0,6.184-1.851,11.372-5.55,15.572h-2.471Z"/>
      <path d="M377.641,191.459c-.254,9.524-5.289,17.068-15.102,22.636l-2.001-2.105c3.515-1.451,6.664-3.8,9.448-7.047,2.784-3.247,4.409-6.97,4.872-11.17h-12.893v-2.314h15.676ZM385.905,204.613v17.416h-2.592v-33.563h2.592v13.832h6.02v2.314h-6.02Z"/>
      <path d="M395.858,205.848v-15.816h2.558v5.811h10.265v-5.811h2.558v15.816h-15.381ZM408.681,198.123h-10.265v5.446h10.265v-5.446ZM409.812,221.577c-3.504,0-6.201-.564-8.091-1.698-1.89-1.127-2.836-2.645-2.836-4.548,0-1.869.943-3.361,2.826-4.479,1.886-1.12,4.586-1.681,8.101-1.681s6.232.553,8.115,1.66c1.886,1.11,2.829,2.61,2.829,4.499,0,1.924-.95,3.448-2.843,4.569-1.9,1.117-4.597,1.677-8.101,1.677ZM409.812,211.416c-2.655,0-4.68.341-6.072,1.027s-2.088,1.646-2.088,2.888c0,1.253.706,2.234,2.112,2.94,1.413.706,3.428,1.061,6.048,1.061,2.655,0,4.691-.358,6.097-1.068,1.413-.717,2.116-1.691,2.116-2.933,0-1.228-.696-2.189-2.088-2.878-1.392-.692-3.435-1.037-6.124-1.037ZM420.181,200.089v8.23h-2.592v-19.852h2.592v9.308h5.063v2.314h-5.063Z"/>
      <path d="M427.99,204.004v-2.279h23.697c.035-.059.104-1.555.209-4.489l-19.417.992-.713-2.384,20.165-.713.035-2.036v-1.601h-18.739v-2.244h21.349c0,5.592-.132,9.75-.4,12.475h4.959v2.279h-31.144ZM433.157,221.037v-8.195h18.391v-3.201h-18.391v-2.331h20.948v7.812h-18.391v3.636h19.313v2.279h-21.871Z"/>
      <path d="M482.553,204.613c-1.705.278-3.525.456-5.453.532-1.935.073-5.78.111-11.546.111v-9.065h11.362v-4.193h-11.362v-2.279h14.006v8.752h-11.414v4.506c7.736,0,12.416-.191,14.041-.574l.365,2.21ZM469.365,221.107v-12.788h2.558v4.315h15.503v-4.315h2.575v12.788h-20.635ZM487.425,214.913h-15.503v3.915h15.503v-3.915ZM487.39,206.457v-7.656h-6.194v-2.279h6.194v-8.056h2.61v17.991h-2.61Z"/>
    </g>
  </g>
</svg>