<?xml version="1.0" encoding="UTF-8"?>
<svg id="_레이어_1" data-name="레이어_1" xmlns="http://www.w3.org/2000/svg" version="1.1" viewBox="0 0 500 300">
  <!-- Generator: Adobe Illustrator 29.2.0, SVG Export Plug-In . SVG Version: 2.1.0 Build 108)  -->
  <defs>
    <style>
      .st0 {
        fill: none;
        stroke: #fff;
        stroke-linecap: round;
        stroke-linejoin: round;
        stroke-width: 10px;
      }

      .st1 {
        fill: #ea0723;
      }

      .st2 {
        fill: #0c0a0f;
      }
    </style>
  </defs>
  <g>
    <polygon class="st0" points="276.937 175.562 278.638 88.963 242.666 69.823 206.807 89.312 208.552 176.222 276.937 175.562"/>
    <path class="st0" d="M165.098,180.427l32.272-3.974c-.93-29.304-1.383-58.506-2.976-87.708l-36.295-22.567,7,114.249Z"/>
    <path class="st0" d="M327.7,66.178l-35.944,22.389c-2.974,3.064.214,22.547-1.926,27.696l-1.402,60.19,32.272,3.974,7-114.249Z"/>
    <path class="st0" d="M170.561,216.376c-47.902,4.451-42.191,77.459,6.793,73.376,47.821-3.986,41.283-77.844-6.793-73.376ZM178.6,273.476c-30.107,5.087-34.115-37.264-8.062-41.003,27.896-4.003,32.211,36.922,8.062,41.003Z"/>
    <path class="st0" d="M108.998,232.677c.027,3.785,2.216,8.892-.32,12.229h-17.522l-1.051-1.051v-26.984h-16.471l-1.051,1.051v70.44h17.522v-29.438h18.924v29.438h17.522v-71.491h-16.821c.392,5.321-.769,10.495-.731,15.807Z"/>
    <path class="st0" d="M412.456,263.539c-.75-5.683-4.432-10.229-8.822-13.607-5.132-3.949-15.211-6.875-18.806-10.632-3.59-3.753-1.732-9.213,3.488-9.826,6.803-.8,11.914,2.572,17.882,4.919l5.564-12.196c-11.296-8.712-37.05-9.407-43.537,5.403-5.726,13.072,1.653,22.768,12.976,28.646,5.356,2.78,16.181,4.735,15.853,12.779-.431,10.575-19.329,5.606-24.852,1.879l-6.36,11.82c-.51,2.109,9.655,5.497,11.624,5.993,18.508,4.664,37.876-3.305,34.99-25.177Z"/>
    <path class="st0" d="M346.281,216.87l-12.274,25.231-12.608-25.231h-17.522l21.027,43.806v28.386h17.522v-29.087c0-2.986,17.6-33.27,19.778-39.797.375-1.124.754-2.077.548-3.308h-16.471Z"/>
    <polygon class="st0" points="235.89 216.87 218.368 216.87 218.368 289.062 253.062 289.062 261.122 272.942 235.89 272.942 235.89 216.87"/>
    <polygon class="st0" points="287.055 216.87 269.533 216.87 269.533 289.062 304.578 289.062 312.288 272.942 287.055 272.942 287.055 216.87"/>
    <path class="st0" d="M227.487,57.066l15.042-7.641,15.787,7.638-2.688-17.01,11.802-12.417-16.853-2.429-6.988-15.099c-1.635-.356-1.12.222-1.559.9-1.621,2.504-5.733,13.286-7.543,14.165l-16.119,2.462,11.812,12.414-2.694,17.016Z"/>
    <path class="st0" d="M323.668,54.834c13.651-1.581,10.601-22.831-3.155-20.04-11.809,2.396-9.097,21.459,3.155,20.04Z"/>
    <path class="st0" d="M163.272,54.907c13.644-.304,12.118-22.133-1.846-20.118-11.97,1.728-10.411,20.391,1.846,20.118Z"/>
  </g>
  <g>
    <polygon class="st1" points="208.552 176.222 206.807 89.312 242.666 69.823 278.638 88.963 276.937 175.562 208.552 176.222"/>
    <path class="st1" d="M194.393,88.745c1.593,29.202,2.046,58.404,2.976,87.708l-32.272,3.974-7-114.249,36.295,22.567Z"/>
    <path class="st1" d="M320.701,180.427l-32.272-3.974,1.402-60.19c2.14-5.149-1.048-24.632,1.926-27.696l35.944-22.389-7,114.249Z"/>
    <path class="st2" d="M170.561,216.376c48.076-4.467,54.614,69.39,6.793,73.376-48.984,4.083-54.694-68.925-6.793-73.376ZM170.538,232.473c-26.053,3.739-22.044,46.09,8.062,41.002,24.148-4.081,19.834-45.006-8.062-41.002Z"/>
    <path class="st2" d="M90.104,216.87v26.984l1.051,1.051h17.522c2.536-3.338.347-8.445.32-12.229-.038-5.312,1.123-10.485.731-15.806h16.821v71.491h-17.522v-29.438h-18.924v29.438h-17.522v-70.44l1.051-1.051h16.471Z"/>
    <path class="st2" d="M406.198,234.393c-5.968-2.347-11.079-5.718-17.882-4.919-5.22.614-7.078,6.073-3.488,9.826,3.595,3.757,13.674,6.683,18.806,10.632,4.39,3.379,8.072,7.925,8.822,13.607,2.886,21.873-16.482,29.841-34.99,25.177-1.969-.496-12.134-3.884-11.624-5.993l6.36-11.82c5.522,3.726,24.42,8.696,24.852-1.879.328-8.044-10.497-9.999-15.853-12.779-11.324-5.878-18.702-15.574-12.976-28.646,6.488-14.81,32.241-14.115,43.537-5.403l-5.564,12.196Z"/>
    <path class="st2" d="M321.399,216.87l12.608,25.231,12.274-25.231h16.471c.206,1.231-.172,2.184-.548,3.308-2.179,6.527-19.778,36.811-19.778,39.797v29.087h-17.522v-28.386l-21.027-43.806h17.522Z"/>
    <polygon class="st2" points="235.89 216.87 235.89 272.942 261.122 272.942 253.062 289.062 218.368 289.062 218.368 216.87 235.89 216.87"/>
    <polygon class="st2" points="287.055 216.87 287.055 272.942 312.288 272.942 304.578 289.062 269.533 289.062 269.533 216.87 287.055 216.87"/>
    <path class="st1" d="M243.589,10.108l6.988,15.099,16.853,2.429-11.802,12.417,2.687,17.01-15.787-7.638-15.042,7.641,2.694-17.016-11.812-12.414,16.118-2.462c1.81-.879,5.922-11.661,7.543-14.165.439-.678-.076-1.256,1.559-.9Z"/>
    <path class="st1" d="M320.512,34.794c13.756-2.791,16.806,18.458,3.155,20.04-12.253,1.419-14.964-17.644-3.155-20.04Z"/>
    <path class="st1" d="M161.426,34.79c13.964-2.016,15.49,19.813,1.846,20.118-12.257.273-13.816-18.39-1.846-20.118Z"/>
  </g>
</svg>