<?xml version="1.0" encoding="utf-8"?>
<!-- Generator: Adobe Illustrator 28.1.0, SVG Export Plug-In . SVG Version: 6.00 Build 0)  -->
<svg version="1.1" id="_레이어_1" xmlns="http://www.w3.org/2000/svg" xmlns:xlink="http://www.w3.org/1999/xlink" x="0px"
	 y="0px" viewBox="0 0 500 300" style="enable-background:new 0 0 500 300;" xml:space="preserve">
<style type="text/css">
	.st0{fill:none;stroke:#FFFFFF;stroke-width:10;stroke-linecap:round;stroke-linejoin:round;}
	.st1{fill:#01006A;}
	.st2{fill:url(#SVGID_1_);}
	.st3{fill:url(#SVGID_00000026854516666365663150000016737785730334200451_);}
	.st4{fill:url(#SVGID_00000148641797240063452120000016765644138884873396_);}
	.st5{fill:#00006A;}
</style>
<g>
	<polygon class="st0" points="276.9,175.6 278.6,89 242.7,69.8 206.8,89.3 208.6,176.2 	"/>
	<path class="st0" d="M165.1,180.4l32.3-4c-0.9-29.3-1.4-58.5-3-87.7l-36.3-22.6L165.1,180.4L165.1,180.4z"/>
	<path class="st0" d="M327.7,66.2l-35.9,22.4c-3,3.1,0.2,22.5-1.9,27.7l-1.4,60.2l32.3,4L327.7,66.2z"/>
	<path class="st0" d="M170.6,216.4c-47.9,4.5-42.2,77.5,6.8,73.4C225.2,285.8,218.6,211.9,170.6,216.4z M178.6,273.5
		c-30.1,5.1-34.1-37.3-8.1-41C198.4,228.5,202.7,269.4,178.6,273.5z"/>
	<path class="st0" d="M109,232.7c0,3.8,2.2,8.9-0.3,12.2H91.2l-1.1-1.1v-27H73.6l-1.1,1.1v70.4h17.5v-29.4H109v29.4h17.5v-71.5
		h-16.8C110.1,222.2,109,227.4,109,232.7L109,232.7z"/>
	<path class="st0" d="M412.5,263.5c-0.8-5.7-4.4-10.2-8.8-13.6c-5.1-3.9-15.2-6.9-18.8-10.6c-3.6-3.8-1.7-9.2,3.5-9.8
		c6.8-0.8,11.9,2.6,17.9,4.9l5.6-12.2c-11.3-8.7-37-9.4-43.5,5.4c-5.7,13.1,1.7,22.8,13,28.6c5.4,2.8,16.2,4.7,15.9,12.8
		c-0.4,10.6-19.3,5.6-24.9,1.9l-6.4,11.8c-0.5,2.1,9.7,5.5,11.6,6C396,293.4,415.3,285.4,412.5,263.5L412.5,263.5z"/>
	<path class="st0" d="M346.3,216.9L334,242.1l-12.6-25.2h-17.5l21,43.8v28.4h17.5V260c0-3,17.6-33.3,19.8-39.8
		c0.4-1.1,0.8-2.1,0.5-3.3L346.3,216.9L346.3,216.9z"/>
	<polygon class="st0" points="235.9,216.9 218.4,216.9 218.4,289.1 253.1,289.1 261.1,272.9 235.9,272.9 	"/>
	<polygon class="st0" points="287.1,216.9 269.5,216.9 269.5,289.1 304.6,289.1 312.3,272.9 287.1,272.9 	"/>
	<path class="st0" d="M227.5,57.1l15-7.6l15.8,7.6l-2.7-17l11.8-12.4l-16.9-2.4l-7-15.1c-1.6-0.4-1.1,0.2-1.6,0.9
		c-1.6,2.5-5.7,13.3-7.5,14.2l-16.1,2.5L230.2,40L227.5,57.1L227.5,57.1z"/>
	<path class="st0" d="M323.7,54.8c13.7-1.6,10.6-22.8-3.2-20C308.7,37.2,311.4,56.3,323.7,54.8z"/>
	<path class="st0" d="M163.3,54.9c13.6-0.3,12.1-22.1-1.8-20.1C149.5,36.5,151,55.2,163.3,54.9z"/>
</g>
<g>
	<g>
		<g>
			<polygon class="st1" points="61.9,107.4 61.9,217.3 80.2,217.3 80.2,160.8 80.2,107.4 			"/>
			<polygon class="st1" points="199.1,206.1 199.1,107.4 180.7,107.4 180.7,206.1 180.7,217.3 199.1,217.3 259.3,217.3 259.3,206.1 
							"/>
			<polygon class="st1" points="155,107.4 133.5,107.4 80.2,160.8 139.6,217.3 161.1,217.3 101.7,160.8 			"/>
		</g>
	</g>
	<linearGradient id="SVGID_1_" gradientUnits="userSpaceOnUse" x1="315.5028" y1="24.0313" x2="345.3521" y2="24.0313">
		<stop  offset="0" style="stop-color:#165099"/>
		<stop  offset="1" style="stop-color:#8EBFF2"/>
	</linearGradient>
	<path class="st2" d="M340.6,32c-6,6.4-15.5,8-21.1,3.6s-5.3-13.1,0.7-19.5c6-6.4,15.5-8,21.1-3.6S346.6,25.6,340.6,32z"/>
	
		<linearGradient id="SVGID_00000070097773099776366230000013170733215988279465_" gradientUnits="userSpaceOnUse" x1="193.4774" y1="184.9417" x2="306.4554" y2="184.9417">
		<stop  offset="0" style="stop-color:#0A4592"/>
		<stop  offset="1" style="stop-color:#699AD9"/>
	</linearGradient>
	<path style="fill:url(#SVGID_00000070097773099776366230000013170733215988279465_);" d="M269.7,100.8c-7.4,10.7-11,24.8-15.8,36.8
		c-15.9,40.2-31.9,80.3-47.8,120.4c-0.1,0.2-0.2,0.4-0.2,0.6c-2.4,6.1-5.2,13.2-7.6,19.1c-0.5,1.3-4,12.2-4.8,12.2
		c2.8,0,5.7,0,8.5,0c0.9,0,5.3-13.3,5.9-14.8c2-5.1,4.1-10.3,6.1-15.4c4.1-10.3,8.1-20.5,12.2-30.8c8.1-20.5,16.3-41.1,24.4-61.6
		c5.5-13.9,10.8-27.8,16.4-41.6c3.4-8.5,6.6-17.7,12.1-25.2c3.9-5.4,8.9-10.9,15.4-12.8c2.6-0.8,5.6-1.3,8.4-1l3.5-6.8
		C291.6,79.6,278,88.8,269.7,100.8z"/>
	
		<linearGradient id="SVGID_00000092449036657288603390000011268322411178033280_" gradientUnits="userSpaceOnUse" x1="292.1204" y1="108.5375" x2="320.4817" y2="209.8452">
		<stop  offset="0" style="stop-color:#699AD9"/>
		<stop  offset="1" style="stop-color:#95CFF6"/>
	</linearGradient>
	<path style="fill:url(#SVGID_00000092449036657288603390000011268322411178033280_);" d="M348.5,173.8c-2-0.4-4.1-0.9-6.1-1.3
		c0.8,0.2-8.6,20.9-9.4,22.5c-5.2,10.7-14.8,24.8-28.5,23.5c-9.9-0.9-10-11.1-8.2-18.7c3.4-13.9,9.8-26.7,15.5-39.7
		c4.1-9.4,8-19,11.7-28.6c4.1-10.4,9.1-22.1,7.5-33.5c-1.5-10.9-11.1-16.7-21.3-17.9c-1.1-0.1-2.3-0.2-3.4-0.2l-3.5,6.8
		c1.6,0.1,3.1,0.5,4.5,1.2c8.4,4.1,3.8,15.3,1.8,21.8c-6.1,19.4-14.6,37.9-22.6,56.5c-7.2,16.7-18.2,40-0.2,53.9
		c6.4,4.9,14.7,6.6,22.6,5.4c13.4-2.1,23.3-12.9,29.9-24.1C340,199.3,351.9,174.5,348.5,173.8z"/>
	<path class="st5" d="M438.1,111.4c0,3.9,0,7.8,0,11.7c-7.8-3.8-14.7-5.2-19.4-5.8c-2.8-0.4-7.4-0.9-13.3-0.3
		c-3.6,0.4-8.9,1.1-14.9,4.2c-5,2.7-8.1,5.9-10.3,8.2c-1.1,1.2-4.5,4.9-7.7,10.6c-3.4,6.2-4.7,11.6-5,13c-0.5,2-1.5,7.3-1.1,14.3
		c0.5,7.3,2.5,12.6,2.9,13.8c0.9,2.4,3.5,8.5,9,14.6c2,2.3,6.5,7.1,14.1,10.6c7.4,3.4,13.8,3.8,18,4c1.6,0.1,8.7,0.3,17.8-2.1
		c4-1.1,7.2-2.4,9.6-3.4c0,3.5,0,7.1,0,10.6c-3.4,1.4-8.5,3.1-14.9,4c-5.4,0.7-9.4,0.5-17,0c-8-0.5-12-0.7-17.2-2.1
		c-2.3-0.6-8.3-2.3-15.4-6.4c-3.3-1.9-8.1-4.7-13-9.8c-5.1-5.4-7.8-10.5-8.8-12.5c-3.6-7.3-4.3-13.6-4.8-17.8
		c-0.3-2.4-0.8-8.3,0.3-15.7c0.5-3.9,1.3-8.9,4-14.9c0.8-1.8,3.2-6.8,8-12.2c4.4-5,8.7-7.8,12.2-10.1c3.1-2,9.3-5.9,18.3-8.5
		c7.5-2.1,13.4-2.3,18.8-2.4c10.8-0.2,19.1,1.4,23.1,2.4C434.3,110.2,436.5,110.9,438.1,111.4z"/>
</g>
</svg>
