<?xml version="1.0" encoding="UTF-8"?>
<svg id="_레이어_1" xmlns="http://www.w3.org/2000/svg" version="1.1" viewBox="0 0 500 300">
  <!-- Generator: Adobe Illustrator 29.2.1, SVG Export Plug-In . SVG Version: 2.1.0 Build 116)  -->
  <defs>
    <style>
      .st0 {
        fill: none;
        stroke: #fff;
        stroke-linecap: round;
        stroke-linejoin: round;
        stroke-width: 10px;
      }

      .st1 {
        fill: #707070;
      }
    </style>
  </defs>
  <g>
    <path class="st0" d="M174.4,151.8l5.6,12.1h.4c-.6-5.8-1.4-13.2-1.4-19.6v-22.3h10.6v56h-11.3l-16.2-29.9-5.7-12h-.4c.5,6,1.4,13.1,1.4,19.5v22.5h-10.6v-56h11.4l16.3,29.8Z"/>
    <path class="st0" d="M200.5,149.8c0-18.2,10.2-28.8,25-28.8s25,10.7,25,28.8-10.2,29.3-25,29.3-25-11.1-25-29.3ZM239.2,149.8c0-12.2-5.1-19.2-13.6-19.2s-13.6,7-13.6,19.2,5.3,19.6,13.6,19.6,13.6-7.7,13.6-19.6Z"/>
    <path class="st0" d="M289.2,151.8l5.6,12.1h.4c-.6-5.8-1.4-13.2-1.4-19.6v-22.3h10.6v56h-11.3l-16.2-29.9-5.7-12h-.4c.5,6,1.4,13.1,1.4,19.5v22.5h-10.6v-56h11.4l16.3,29.8Z"/>
    <path class="st0" d="M352.5,131.3h-23.1v12.9h19.7v9.4h-19.7v15h24v9.4h-35.2v-56h34.3v9.3Z"/>
  </g>
  <g>
    <path class="st1" d="M174.4,151.8l5.6,12.1h.4c-.6-5.8-1.4-13.2-1.4-19.6v-22.3h10.6v56h-11.3l-16.2-29.9-5.7-12h-.4c.5,6,1.4,13.1,1.4,19.5v22.5h-10.6v-56h11.4l16.3,29.8Z"/>
    <path class="st1" d="M200.5,149.8c0-18.2,10.2-28.8,25-28.8s25,10.7,25,28.8-10.2,29.3-25,29.3-25-11.1-25-29.3ZM239.2,149.8c0-12.2-5.1-19.2-13.6-19.2s-13.6,7-13.6,19.2,5.3,19.6,13.6,19.6,13.6-7.7,13.6-19.6Z"/>
    <path class="st1" d="M289.2,151.8l5.6,12.1h.4c-.6-5.8-1.4-13.2-1.4-19.6v-22.3h10.6v56h-11.3l-16.2-29.9-5.7-12h-.4c.5,6,1.4,13.1,1.4,19.5v22.5h-10.6v-56h11.4l16.3,29.8Z"/>
    <path class="st1" d="M352.5,131.3h-23.1v12.9h19.7v9.4h-19.7v15h24v9.4h-35.2v-56h34.3v9.3Z"/>
  </g>
</svg>