<?xml version="1.0" encoding="UTF-8"?>
<svg id="_레이어_1" xmlns="http://www.w3.org/2000/svg" version="1.1" viewBox="0 0 500 300">
  <!-- Generator: Adobe Illustrator 29.2.0, SVG Export Plug-In . SVG Version: 2.1.0 Build 108)  -->
  <defs>
    <style>
      .st0 {
        fill: #231815;
      }

      .st1 {
        fill: #0068b7;
      }

      .st2 {
        fill: none;
        stroke: #fff;
        stroke-linecap: round;
        stroke-linejoin: round;
        stroke-width: 10px;
      }
    </style>
  </defs>
  <g>
    <path class="st2" d="M49.321,91.259c-16.304,9.59-24.935,21.099-24.935,34.046s5.275,22.058,16.304,32.607c6.713,6.713,10.07,11.508,10.07,13.427,0,3.357-1.918,5.754-6.234,7.672-4.316,1.918-9.59,2.877-15.824,2.877s-11.508-1.439-18.701-3.836v37.403c30.689-21.099,72.408-38.841,120.839-50.35-2.398-6.234-6.713-12.947-12.947-19.181l-5.754-5.754c-4.316-4.316-6.234-7.672-6.234-10.549s1.918-6.234,5.754-8.152c3.836-2.398,8.631-3.357,14.386-3.357s6.713,0,11.988,1.439v-39.8c-9.59-1.918-19.66-2.877-29.73-2.877-23.017,0-42.677,4.795-58.981,14.386Z"/>
    <path class="st2" d="M228.661,80.709v-.479h-70.01v79.121c22.058-4.316,45.554-7.193,70.01-8.631v-70.01Z"/>
    <path class="st2" d="M425.265,143.526l64.735-63.297h-72.887l-61.858,61.379v-61.379h-70.01v69.051c23.976,0,47.473,2.398,70.01,5.275v-10.549l8.631,11.988c33.566,5.275,64.735,12.947,91.588,23.496l-30.21-35.964Z"/>
    <path class="st2" d="M45.964,223.127c-.06,0-.121-.004-.181-.004-.1,0-.198.004-.299.004h.48Z"/>
    <path class="st2" d="M45.783,223.123c24.324-.039,44.847-4.829,62.039-13.902,16.783-9.111,24.935-20.14,25.415-33.566-47.952,9.111-89.67,23.976-121.798,42.677,11.448,2.862,22.896,4.772,34.345,4.792Z"/>
    <path class="st2" d="M234.416,175.654c-3.357-1.918-4.795-5.754-5.275-10.549-23.976.959-47.473,2.877-70.01,6.234,0,16.304,4.795,28.771,19.181,37.403h-.48c14.865,8.631,35.485,10.549,62.338,10.549h28.292v-40.28h-12.468c-11.029,0-18.222-.959-21.578-3.357Z"/>
    <path class="st2" d="M409.92,219.291h79.6c-29.251-17.263-66.653-31.648-109.331-40.759,0,0,29.73,40.759,29.73,40.759Z"/>
    <path class="st2" d="M285.245,219.291h70.01v-46.034c-22.058-3.836-45.554-6.713-70.01-7.672v53.706Z"/>
  </g>
  <g>
    <path class="st1" d="M117.892,145.924l-5.754-5.754c-4.316-4.316-6.234-7.672-6.234-10.549s1.918-6.234,5.754-8.152c3.836-2.398,8.631-3.357,14.386-3.357s6.713,0,11.988,1.439v-39.8c-9.59-1.918-19.66-2.877-29.73-2.877-23.017,0-42.677,4.795-58.981,14.386-16.304,9.59-24.935,21.099-24.935,34.046s5.275,22.058,16.304,32.607c6.713,6.713,10.07,11.508,10.07,13.427,0,3.357-1.918,5.754-6.234,7.672-4.316,1.918-9.59,2.877-15.824,2.877s-11.508-1.439-18.701-3.836v37.403c30.689-21.099,72.408-38.841,120.839-50.35-2.398-6.234-6.713-12.947-12.947-19.181Z"/>
    <path class="st1" d="M228.661,80.23h-70.01v79.121c22.058-4.316,45.554-7.193,70.01-8.631v-70.01h0v-.48Z"/>
    <path class="st1" d="M490,80.23h-72.887l-61.858,61.379v-61.379h-70.01v69.051c23.976,0,47.473,2.398,70.01,5.275v-10.549l8.631,11.988c33.566,5.275,64.735,12.947,91.588,23.497l-30.21-35.964,64.735-63.297Z"/>
    <path class="st0" d="M45.485,223.127c24.456,0,45.075-4.795,62.338-13.906,16.783-9.111,24.935-20.14,25.415-33.566-47.952,9.111-89.67,23.976-121.798,42.677,11.508,2.877,23.017,4.795,34.525,4.795h-.48Z"/>
    <path class="st0" d="M177.832,208.741c14.865,8.631,35.485,10.549,62.338,10.549h28.292v-40.28h-12.468c-11.029,0-18.222-.959-21.578-3.357-3.357-1.918-4.795-5.754-5.275-10.549-23.976.959-47.473,2.877-70.01,6.234,0,16.304,4.795,28.771,19.181,37.403h-.48Z"/>
    <path class="st0" d="M409.92,219.291h79.6c-29.251-17.263-66.653-31.648-109.331-40.759,0,0,29.73,40.759,29.73,40.759Z"/>
    <path class="st0" d="M285.245,219.291h70.01v-46.034c-22.058-3.836-45.554-6.713-70.01-7.672v53.706Z"/>
  </g>
</svg>