<?xml version="1.0" encoding="UTF-8"?>
<svg id="_레이어_1" xmlns="http://www.w3.org/2000/svg" version="1.1" viewBox="0 0 500 300">
  <!-- Generator: Adobe Illustrator 29.2.0, SVG Export Plug-In . SVG Version: 2.1.0 Build 108)  -->
  <defs>
    <style>
      .st0 {
        fill: #cf102b;
      }

      .st1 {
        fill: none;
        stroke: #fff;
        stroke-linecap: round;
        stroke-linejoin: round;
        stroke-width: 10px;
      }

      .st2 {
        fill: #706f70;
      }

      .st3 {
        fill: #767576;
      }
    </style>
  </defs>
  <g>
    <path class="st1" d="M213.971,133.805c0,8.736,3.881,13.104,11.643,13.104,2.663,0,4.855-.473,6.573-1.418h0v-5.885c-1.318,1.003-2.878,1.504-4.683,1.504-2.378,0-4.096-.63-5.156-1.891-1.06-1.261-1.59-3.48-1.59-6.659v-25.907h11.428v-5.885h-11.428v-13.276l-6.789,2.192v11.084h-7.819v5.885h7.819v27.152Z"/>
    <path class="st1" d="M257.526,106.312c2.348,0,4.169.487,5.457,1.461v-7.174c-1.06-.401-2.536-.602-4.427-.602v-.002c-2.606,0-4.96.895-7.066,2.686-2.104,1.791-3.672,4.274-4.704,7.453h-.172v-9.367h-6.832v45.152h6.832v-23.111c0-4.984,1.046-8.978,3.136-11.986,2.09-3.007,4.683-4.511,7.776-4.511Z"/>
    <path class="st1" d="M300.691,145.919v-29.514c0-11.112-5.24-16.668-15.722-16.668-5.729,0-10.799,1.418-15.21,4.253v7.215c4.298-3.752,9.197-5.627,14.695-5.627,6.241,0,9.364,3.924,9.364,11.772l-13.618,1.977c-9.911,1.375-14.866,6.259-14.866,14.65,0,3.953,1.296,7.111,3.887,9.473,2.593,2.364,6.092,3.545,10.503,3.545,6.13,0,10.756-2.722,13.878-8.163h.258v7.088h6.83ZM293.819,127.574c0,3.895-1.187,7.131-3.564,9.71-2.378,2.579-5.385,3.867-9.021,3.867-2.636,0-4.763-.702-6.38-2.106-1.619-1.402-2.426-3.25-2.426-5.541,0-3.036.845-5.185,2.534-6.444,1.689-1.259,4.296-2.12,7.819-2.577v-.002l11.039-1.461v4.554Z"/>
    <path class="st1" d="M319.072,120.185c0-4.268,1.208-7.782,3.629-10.547,2.419-2.765,5.463-4.147,9.129-4.147,7.133,0,10.697,4.884,10.697,14.651v25.778h6.832l.002-.002v-27.58c0-6.044-1.31-10.654-3.932-13.833-2.62-3.179-6.409-4.769-11.364-4.769-6.501,0-11.442,2.864-14.821,8.593h-.172v-7.561h-6.832v45.152h6.832v-25.735Z"/>
    <polygon class="st1" points="358.073 136.724 358.071 136.726 358.073 136.727 358.073 136.724"/>
    <path class="st1" d="M370.059,146.991c5.156,0,9.389-1.167,12.695-3.502,3.308-2.335,4.962-5.506,4.962-9.516,0-2.776-.817-5.17-2.448-7.174-1.635-2.004-5.142-4.053-10.527-6.143-3.981-1.574-6.568-2.892-7.754-3.951-1.189-1.06-1.783-2.593-1.783-4.597,0-1.861.802-3.414,2.405-4.661,1.605-1.245,3.809-1.869,6.617-1.869,4.296,0,8.12,1.089,11.469,3.265v-7.088c-3.093-1.347-6.558-2.02-10.394-2.02-4.786,0-8.838,1.204-12.16,3.609-3.322,2.405-4.984,5.527-4.984,9.365,0,2.978.839,5.441,2.512,7.389,1.678,1.947,4.89,3.865,9.647,5.756,4.124,1.547,6.886,2.929,8.29,4.147,1.404,1.218,2.104,2.757,2.104,4.618,0,4.325-3.208,6.487-9.624,6.487-4.723,0-9.063-1.46-13.014-4.38v7.515c3.322,1.832,7.316,2.749,11.986,2.749Z"/>
    <path class="st1" d="M214.939,161.205c-4.225,4.481-6.337,10.46-6.337,17.937,0,6.818,1.99,12.287,5.971,16.41,3.981,4.124,9.121,6.186,15.423,6.186,4.61,0,8.693-1.06,12.244-3.177l.002.002v-6.573c-3.494,2.634-7.232,3.951-11.213,3.951-4.812,0-8.599-1.584-11.364-4.747-2.763-3.165-4.145-7.383-4.145-12.654,0-5.525,1.509-9.96,4.532-13.296,3.019-3.338,6.837-5.007,11.448-5.007,3.809,0,7.402,1.189,10.783,3.566v-7.131c-3.035-1.461-6.501-2.192-10.396-2.192-7.074,0-12.723,2.241-16.948,6.724Z"/>
    <path class="st1" d="M270.845,154.481c-7.076,0-12.652,2.157-16.733,6.468-4.083,4.311-6.124,10.216-6.124,17.72,0,6.902,1.992,12.474,5.973,16.711,3.981,4.241,9.252,6.358,15.81,6.358,6.703,0,12.099-2.168,16.195-6.507s6.145-10.089,6.145-17.249c0-7.391-1.898-13.155-5.692-17.292-3.797-4.139-8.988-6.21-15.575-6.21ZM281.305,191.322c-2.561,3.079-6.249,4.618-11.061,4.618-4.64,0-8.357-1.596-11.149-4.79-2.794-3.193-4.19-7.453-4.19-12.781,0-5.612,1.388-10.038,4.169-13.274,2.776-3.236,6.499-4.855,11.17-4.855,4.781,0,8.462,1.568,11.039,4.704,2.579,3.136,3.867,7.58,3.867,13.253s-1.281,10.048-3.846,13.125Z"/>
    <path class="st1" d="M328.362,188.725c0-2.778-.817-5.17-2.448-7.174-1.635-2.006-5.142-4.055-10.527-6.145-3.981-1.574-6.568-2.892-7.754-3.952-1.189-1.06-1.783-2.593-1.783-4.599,0-1.861.802-3.414,2.405-4.661,1.605-1.245,3.809-1.869,6.616-1.869,4.296,0,8.12,1.089,11.469,3.265v-7.088c-3.093-1.345-6.558-2.02-10.394-2.02-4.786,0-8.838,1.204-12.159,3.609-3.322,2.405-4.984,5.527-4.984,9.367,0,2.978.839,5.441,2.512,7.389,1.678,1.947,4.89,3.864,9.647,5.754,4.124,1.547,6.886,2.929,8.29,4.147,1.404,1.216,2.104,2.757,2.104,4.616,0,4.327-3.208,6.487-9.624,6.487-4.724,0-9.064-1.461-13.016-4.382l.002.002v7.518c3.322,1.832,7.316,2.749,11.986,2.749,5.156,0,9.389-1.167,12.695-3.5,3.308-2.335,4.962-5.506,4.962-9.516Z"/>
    <path class="st1" d="M386.182,154.485c-6.644,0-11.641,3.136-14.995,9.409-.917-2.921-2.542-5.22-4.874-6.894-2.335-1.676-4.962-2.514-7.883-2.514-6.159,0-10.814,2.735-13.962,8.206h-.172v-7.176h-6.832v45.154h6.832v-25.778c0-4.298,1.058-7.813,3.177-10.548s4.769-4.104,7.948-4.104c6.988,0,10.482,4.524,10.482,13.577v26.849h6.789v-25.778c0-3.953,1.109-7.383,3.33-10.29,2.219-2.905,4.876-4.36,7.97-4.36,3.664,0,6.294,1.097,7.881,3.289,1.592,2.19,2.385,5.936,2.385,11.233v25.907h6.83l.002.004v-27.797c0-12.257-4.968-18.387-14.907-18.387Z"/>
    <path class="st1" d="M448.059,160.691c-3.797-4.139-8.988-6.21-15.575-6.21-7.076,0-12.652,2.157-16.733,6.468-4.083,4.311-6.124,10.216-6.124,17.72,0,6.902,1.992,12.474,5.973,16.711,3.981,4.241,9.252,6.358,15.81,6.358,6.703,0,12.099-2.168,16.195-6.507,4.096-4.339,6.145-10.089,6.145-17.249,0-7.391-1.898-13.155-5.692-17.292ZM442.944,191.322c-2.561,3.079-6.249,4.618-11.061,4.618-4.64,0-8.357-1.596-11.149-4.79-2.794-3.193-4.19-7.453-4.19-12.781,0-5.612,1.388-10.038,4.169-13.274,2.776-3.236,6.499-4.855,11.17-4.855,4.781,0,8.462,1.568,11.039,4.704,2.579,3.136,3.867,7.58,3.867,13.253s-1.281,10.048-3.846,13.125Z"/>
    <path class="st1" d="M473.371,195.854c-4.724,0-9.064-1.461-13.016-4.382l.002.002v7.518c3.322,1.832,7.316,2.749,11.986,2.749,5.156,0,9.389-1.167,12.695-3.5,3.308-2.335,4.962-5.506,4.962-9.516,0-2.778-.817-5.17-2.448-7.174-1.635-2.006-5.142-4.055-10.527-6.145-3.981-1.574-6.568-2.892-7.754-3.952-1.189-1.06-1.783-2.593-1.783-4.599,0-1.861.802-3.414,2.405-4.661,1.605-1.245,3.809-1.869,6.616-1.869,4.296,0,8.12,1.089,11.469,3.265v-7.088c-3.093-1.345-6.558-2.02-10.394-2.02-4.786,0-8.838,1.204-12.159,3.609-3.322,2.405-4.984,5.527-4.984,9.367,0,2.978.839,5.441,2.513,7.389,1.678,1.947,4.89,3.864,9.647,5.754,4.124,1.547,6.886,2.929,8.29,4.147,1.404,1.216,2.104,2.757,2.104,4.616,0,4.327-3.209,6.487-9.624,6.487Z"/>
    <path class="st1" d="M306.729,213.445c-1.672,0-2.947.733-3.822,2.204h-.041v-1.951h-1.67v16.119h1.67v-6.701h.041c.778,1.253,1.885,1.881,3.318,1.881,1.535,0,2.757-.553,3.672-1.656.913-1.101,1.369-2.585,1.369-4.446,0-1.666-.405-2.991-1.218-3.975-.811-.983-1.916-1.474-3.318-1.474ZM308.639,222.326c-.622.835-1.472,1.251-2.557,1.251-.919,0-1.681-.325-2.295-.972s-.921-1.429-.921-2.346l.004-.002v-1.595c0-1.099.328-2.008.984-2.729.655-.721,1.488-1.083,2.503-1.083.974,0,1.752.36,2.336,1.077.585.718.878,1.689.878,2.913,0,1.492-.313,2.653-.931,3.486Z"/>
    <path class="st1" d="M322.676,218.726c0-1.65-.393-2.945-1.181-3.879-.786-.937-1.893-1.402-3.322-1.402s-2.628.546-3.594,1.642-1.447,2.481-1.447,4.155c0,1.799.44,3.207,1.318,4.225.878,1.019,2.094,1.529,3.648,1.529,1.568,0,2.847-.362,3.832-1.083v-1.595c-1.036.833-2.184,1.251-3.445,1.251-1.093,0-1.961-.338-2.608-1.015-.647-.677-.987-1.652-1.023-2.925h7.821v-.903ZM320.953,218.161h-6.081c.149-.995.522-1.791,1.124-2.389.602-.6,1.32-.897,2.153-.897.884,0,1.572.289,2.065.87.495.581.741,1.386.741,2.415l-.002.002Z"/>
    <path class="st1" d="M329.994,213.443c-1.73,0-3.093.526-4.092,1.58-.997,1.053-1.495,2.498-1.496,4.331,0,1.686.485,3.049,1.458,4.085.974,1.034,2.262,1.554,3.865,1.554,1.636,0,2.956-.53,3.959-1.592,1.001-1.06,1.502-2.464,1.502-4.215,0-1.807-.465-3.216-1.392-4.227s-2.196-1.515-3.805-1.515ZM332.55,222.451c-.628.753-1.529,1.128-2.706,1.128-1.136,0-2.041-.391-2.726-1.171-.68-.782-1.023-1.822-1.023-3.124,0-1.373.34-2.456,1.019-3.246s1.59-1.187,2.729-1.187c1.171,0,2.071.383,2.7,1.152.63.765.944,1.846.944,3.24,0,1.386-.311,2.456-.939,3.209Z"/>
    <polygon class="st1" points="324.406 219.356 324.406 219.354 324.406 219.352 324.406 219.356"/>
    <path class="st1" d="M343.333,213.445c-1.672,0-2.947.733-3.822,2.204h-.041v-1.951h-1.67v16.119h1.67v-6.701h.041c.778,1.253,1.885,1.881,3.318,1.881,1.535,0,2.757-.553,3.672-1.656.913-1.101,1.369-2.585,1.369-4.446,0-1.666-.405-2.991-1.218-3.975-.811-.983-1.916-1.474-3.318-1.474ZM345.243,222.326c-.622.835-1.472,1.251-2.557,1.251-.919,0-1.681-.325-2.295-.972s-.921-1.429-.921-2.346l.004-.002v-1.595c0-1.099.328-2.008.984-2.729.655-.721,1.488-1.083,2.503-1.083.974,0,1.752.36,2.336,1.077.585.718.878,1.689.878,2.913,0,1.492-.313,2.653-.931,3.486Z"/>
    <rect class="st1" x="350.493" y="208.403" width="1.658" height="16.33"/>
    <path class="st1" d="M364.336,218.726c0-1.65-.393-2.945-1.181-3.879-.786-.937-1.893-1.402-3.322-1.402s-2.628.546-3.594,1.642-1.447,2.481-1.447,4.155c0,1.799.44,3.207,1.318,4.225.878,1.019,2.094,1.529,3.648,1.529,1.568,0,2.847-.362,3.832-1.083v-1.595c-1.036.833-2.184,1.251-3.445,1.251-1.093,0-1.961-.338-2.608-1.015-.647-.677-.987-1.652-1.023-2.925h7.821v-.903ZM362.613,218.161h-6.081c.149-.995.522-1.791,1.124-2.389.602-.6,1.32-.897,2.153-.897.884,0,1.572.289,2.065.87.495.581.741,1.386.741,2.415l-.002.002Z"/>
    <path class="st1" d="M379.555,223.018c-.37-.264-.874-.839-1.511-1.728,1.658-2.395,2.487-4.798,2.487-7.205,0-.594-.041-1.07-.125-1.427h-1.648c.127.534.19,1.026.19,1.48,0,2.18-.583,4.116-1.752,5.809-1.353-2.108-2.798-3.455-4.339-4.043,1.983-.792,2.972-1.994,2.972-3.613,0-.972-.344-1.76-1.038-2.362-.694-.602-1.597-.903-2.71-.903-1.177,0-2.133.319-2.866.954-.735.637-1.103,1.498-1.103,2.585,0,1.265.596,2.348,1.785,3.244-2.387,1.03-3.58,2.612-3.58,4.747,0,1.373.463,2.454,1.396,3.244.931.792,2.198,1.187,3.801,1.187,2.175,0,4.028-.809,5.554-2.422.719,1.027,1.322,1.687,1.809,1.982.487.295,1.046.442,1.676.442.567,0,1.095-.096,1.586-.293v-1.586c-.616.201-1.05.303-1.302.303-.483,0-.911-.131-1.281-.393ZM369.697,212.553c0-.659.217-1.187.653-1.582.434-.395,1.011-.592,1.732-.592.602,0,1.115.182,1.539.549.424.368.635.874.635,1.517,0,1.183-.923,2.096-2.763,2.739v.004c-1.197-.657-1.797-1.537-1.797-2.636ZM371.502,223.514c-1.05,0-1.895-.274-2.536-.819-.639-.546-.96-1.281-.96-2.206,0-.903.242-1.656.723-2.262.485-.606,1.302-1.134,2.46-1.582,1.042.387,1.91.888,2.604,1.504.692.614,1.515,1.664,2.467,3.15h0c-1.283,1.476-2.868,2.215-4.759,2.215Z"/>
    <path class="st1" d="M386.393,210.45l-1.66.534v2.712h-1.912v1.437h1.912v6.638c0,2.135.948,3.203,2.847,3.203.649,0,1.185-.115,1.605-.346l.002-.004v-1.437c-.323.246-.704.368-1.144.368-.583,0-1.003-.154-1.261-.461-.26-.307-.389-.852-.389-1.627v-6.333h2.794v-1.437h-2.794v-3.246Z"/>
    <path class="st1" d="M399.96,218.726c0-1.65-.393-2.945-1.181-3.879-.786-.937-1.893-1.402-3.322-1.402s-2.628.546-3.594,1.642-1.447,2.481-1.447,4.155c0,1.799.44,3.207,1.318,4.225.878,1.019,2.094,1.529,3.648,1.529,1.568,0,2.847-.362,3.832-1.083v-1.595c-1.036.833-2.184,1.251-3.445,1.251-1.093,0-1.961-.338-2.608-1.015-.647-.677-.987-1.652-1.023-2.925h7.821v-.903ZM398.238,218.161h-6.081c.149-.995.522-1.791,1.124-2.389.602-.6,1.32-.897,2.153-.897.884,0,1.572.289,2.065.87.495.581.741,1.386.741,2.415l-.002.002Z"/>
    <path class="st1" d="M403.239,215.085c-1.032,1.095-1.549,2.557-1.549,4.384,0,1.668.485,3.007,1.459,4.014s2.231,1.511,3.77,1.511c1.128,0,2.125-.258,2.993-.778h0v-1.605c-.852.643-1.768.966-2.741.966-1.177,0-2.1-.389-2.776-1.161-.677-.772-1.015-1.805-1.015-3.091,0-1.351.368-2.436,1.107-3.252.739-.815,1.674-1.224,2.8-1.224.933,0,1.811.291,2.638.872v-1.744c-.743-.356-1.592-.534-2.544-.534-1.728,0-3.109.547-4.141,1.642Z"/>
    <path class="st1" d="M421.434,217.936c0-2.997-1.242-4.495-3.727-4.495-1.576,0-2.786.698-3.635,2.1h-.041v-7.14h-1.67v16.33h1.67v-6.247c0-1.066.301-1.936.905-2.616.602-.678,1.341-1.019,2.215-1.019,1.752,0,2.626,1.175,2.626,3.519v6.364h1.66l-.004-.002v-6.794Z"/>
    <path class="st1" d="M433.645,217.989c0-1.476-.321-2.604-.96-3.381-.641-.778-1.568-1.165-2.778-1.165-1.59,0-2.798.698-3.625,2.1h-.041v-1.848h-1.67v11.037h1.67v-6.29c0-1.044.295-1.902.888-2.579s1.337-1.015,2.233-1.015c1.744,0,2.616,1.195,2.616,3.582v6.302h1.67l-.002-.002v-6.742Z"/>
    <polygon class="st1" points="436.026 219.356 436.026 219.354 436.026 219.352 436.026 219.356"/>
    <path class="st1" d="M441.614,213.443c-1.73,0-3.093.526-4.092,1.58-.997,1.053-1.495,2.498-1.496,4.331,0,1.686.485,3.049,1.458,4.085.974,1.034,2.262,1.554,3.865,1.554,1.636,0,2.956-.53,3.959-1.592,1.001-1.06,1.502-2.464,1.502-4.215,0-1.807-.465-3.216-1.392-4.227s-2.196-1.515-3.805-1.515ZM444.17,222.451c-.628.753-1.529,1.128-2.706,1.128-1.136,0-2.041-.391-2.726-1.171-.68-.782-1.023-1.822-1.023-3.124,0-1.373.34-2.456,1.019-3.246.678-.79,1.59-1.187,2.729-1.187,1.171,0,2.071.383,2.7,1.152.63.765.944,1.846.944,3.24,0,1.386-.311,2.456-.938,3.209Z"/>
    <rect class="st1" x="449.431" y="208.403" width="1.658" height="16.33"/>
    <polygon class="st1" points="453.731 219.356 453.731 219.354 453.731 219.352 453.731 219.356"/>
    <path class="st1" d="M459.319,213.443c-1.73,0-3.093.526-4.092,1.58-.997,1.053-1.495,2.498-1.496,4.331,0,1.686.485,3.049,1.458,4.085.974,1.034,2.262,1.554,3.865,1.554,1.636,0,2.956-.53,3.959-1.592,1.001-1.06,1.502-2.464,1.502-4.215,0-1.807-.465-3.216-1.392-4.227-.927-1.011-2.196-1.515-3.805-1.515ZM461.876,222.451c-.628.753-1.529,1.128-2.706,1.128-1.136,0-2.041-.391-2.726-1.171-.68-.782-1.023-1.822-1.023-3.124,0-1.373.34-2.456,1.019-3.246s1.59-1.187,2.729-1.187c1.171,0,2.071.383,2.7,1.152.63.765.944,1.846.944,3.24,0,1.386-.311,2.456-.939,3.209Z"/>
    <path class="st1" d="M474.798,215.252h-.041c-.727-1.204-1.84-1.807-3.338-1.807-1.541,0-2.767.551-3.678,1.654-.909,1.101-1.363,2.595-1.363,4.479,0,1.638.422,2.95,1.261,3.938.839.987,1.942,1.482,3.306,1.482,1.672,0,2.945-.716,3.811-2.143h.041v1.228c0,2.933-1.369,4.401-4.106,4.401-1.148,0-2.338-.348-3.57-1.04v1.701c1.042.524,2.237.786,3.582.786,3.83,0,5.744-2.024,5.744-6.069v-10.165h-1.65v1.554ZM474.802,218.087v1.68c0,1.099-.321,2.01-.966,2.729-.643.721-1.463,1.083-2.456,1.083-.982,0-1.777-.375-2.391-1.128-.614-.753-.919-1.752-.919-2.997,0-1.437.317-2.563.95-3.379.633-.815,1.504-1.224,2.61-1.224.882,0,1.631.317,2.245.946.618.63.925,1.392.925,2.288l.002.002Z"/>
    <path class="st1" d="M483.573,222.326l-.209.768h-.053c-.131-.469-.209-.731-.229-.786l-3.048-8.611h-1.848l4.307,11.016-.905,2.133c-.446,1.077-1.118,1.615-2.016,1.615-.323,0-.661-.059-1.019-.178v1.521c.35.084.716.125,1.093.125,1.603,0,2.853-1.124,3.748-3.371l5.115-12.863h-1.732l-3.205,8.63Z"/>
    <path class="st1" d="M122.239,222.1c40.602-1.529,73.166-35.018,73.166-75.988,0-13.965-3.8-27.052-10.395-38.312-.003-.538-.298-1.003-.733-1.255-3.378-5.523-7.451-10.572-12.079-15.052l2.618-1.388-3.272.764c-10.933-10.336-24.909-17.483-40.439-19.904l-.694-1.309.291,1.248c-2.772-.417-5.595-.67-8.455-.778-.052-.005-.102-.02-.154-.02h-.02c-.044,0-.085.009-.127.013-.866-.029-1.73-.066-2.602-.066-.882,0-1.755.037-2.63.067-.045-.004-.089-.014-.134-.014-.054,0-.105.015-.158.021-26.36,1.002-49.328,15.467-62.192,36.716-.127.144-.224.313-.287.499-4.217,7.087-7.322,14.907-9.057,23.228-18.658,6.409-34.782,14.946-34.886,25.328-.119,11.853,20.438,21.924,39.947,29.06-7.987-6.255-14.918-14.138-14.637-23.033.18-5.693,3.253-10.992,7.973-15.813,0,13.796,3.711,26.733,10.159,37.901.066.211.175.403.323.561,12.775,21.697,35.993,36.525,62.701,37.525.064.008.129.024.191.024.052,0,.102-.01.153-.015.843.028,1.684.064,2.533.064.856,0,1.703-.037,2.552-.065.053.006.104.016.158.016.063,0,.123-.017.185-.025ZM117.009,219.181c-13.403-7.905-24.012-19.876-30.869-34.135h31.737v34.157c-.29-.006-.58-.013-.869-.022ZM46.254,147.579h28.214c.187,12.163,2.68,23.885,7.141,34.533h-25.878c-5.816-10.237-9.227-22.001-9.476-34.533ZM46.288,143.293c8.27-7.176,19.924-13.15,30.373-17.586-1.354,6.125-2.095,12.471-2.194,18.939h-28.213c.009-.452.017-.904.034-1.354ZM80.934,120.814c1.147-3.972,2.567-7.826,4.232-11.539h32.712v.592l-7.917,4.196,7.917-1.849v32.432h-40.478c.109-6.967.997-13.784,2.602-20.324,11.734-4.747,21.177-7.384,21.177-7.384v-.002s-8.472,1.33-20.244,3.877ZM121.695,73.045c4.088,2.416,7.911,5.214,11.452,8.335l1.27,5.44,2.067,8.892-1.678-.34-11.761-2.407,9.542,7.285,1.388,1.064-8.441,4.493-1.007.534h-3.717v-33.319c.295.006.59.013.885.022ZM192.434,144.646h-28.229c-.189-12.408-2.773-24.364-7.406-35.187l5.786,1.185-1.795-1.371h21.684c6.11,10.43,9.703,22.496,9.959,35.372ZM182.958,182.112h-25.894c4.46-10.649,6.954-22.37,7.141-34.533h28.229c-.249,12.533-3.66,24.297-9.476,34.533ZM127.126,110.055l3.359-.78h5.782l-.091.448-2.407,11.759,7.285-9.539.788-1.028,4.268,8.024,8.255,15.573-4.006-17.165-1.876-8.071h5.023c4.846,10.813,7.568,22.849,7.765,35.372h-40.462v-33.117l6.316-1.475ZM161.272,147.579c-.194,12.202-2.78,23.94-7.393,34.533h-33.068v-34.533h40.462ZM143.11,93.586l-2.446-4.598c1.059,1.229,2.083,2.49,3.069,3.785l-.623.813ZM117.878,73.023v33.319h-31.334c6.861-13.882,17.307-25.54,30.431-33.296.3-.01.601-.017.903-.023ZM77.4,147.579h40.478v34.533h-33.084c-4.614-10.593-7.2-22.331-7.393-34.533ZM120.811,219.203v-34.157h31.722c-6.857,14.258-17.463,26.231-30.865,34.135-.285.009-.571.016-.857.022ZM127.802,218.736c12.101-8.358,21.683-20.057,27.976-33.69h25.423c-11.539,18.267-30.928,31.089-53.399,33.69ZM180.663,106.342h-23.712l-2.487-1.899c-.469-.932-.955-1.853-1.456-2.765l6.235-3.317,10.226-5.42c4.241,4,8.002,8.497,11.195,13.402ZM168.104,91.672l-10.453,2.44-8.407.829.213-1.052,2.407-11.759-6.282,8.226c-2.958-3.81-6.234-7.343-9.795-10.557l-2.938-5.543c13.386,2.511,25.498,8.669,35.255,17.416ZM132.034,76.611c-1.364-1.086-2.768-2.123-4.205-3.117,1.208.14,2.406.309,3.596.508l.609,2.61ZM110.84,73.496c-11.839,8.191-21.263,19.581-27.553,32.846h-25.261c11.59-17.808,30.708-30.273,52.815-32.846ZM56.213,109.274h25.742c-1.698,3.943-3.118,8.04-4.257,12.252-9.005,2.02-19.522,4.686-29.551,7.955,1.682-7.201,4.426-13.994,8.065-20.207ZM57.488,185.046h25.408c6.292,13.631,15.873,25.33,27.973,33.687-22.463-2.606-41.845-15.426-53.38-33.687Z"/>
    <path class="st1" d="M178.981,199.356c3.641,2.851,6.798,6.442,6.669,10.494-.387,12.217-29.951,20.479-30.004,20.494.19-.03,41.421-6.521,41.534-17.749.055-5.4-9.311-9.987-18.199-13.239Z"/>
    <polygon class="st1" points="155.643 230.344 155.646 230.343 155.641 230.344 155.643 230.344"/>
  </g>
  <g>
    <g>
      <path d="M232.188,145.491c-1.719.944-3.91,1.418-6.573,1.418-7.762,0-11.643-4.368-11.643-13.104v-27.152h-7.819v-5.885h7.819v-11.084l6.789-2.192v13.276h11.428v5.885h-11.428v25.907c0,3.179.53,5.398,1.59,6.659s2.778,1.891,5.156,1.891c1.805,0,3.365-.501,4.683-1.504v5.885h0Z"/>
      <g>
        <path class="st0" d="M258.556,99.995c-2.606,0-4.96.895-7.066,2.686-2.104,1.791-3.672,4.274-4.704,7.453h-.172v12.674c0-4.984,1.046-8.978,3.136-11.986s4.683-4.511,7.776-4.511c2.348,0,4.169.487,5.457,1.461v-7.174c-1.06-.401-2.536-.602-4.427-.602v-.002Z"/>
        <polygon points="246.614 104.455 246.614 103.97 246.614 100.767 239.782 100.767 239.782 145.919 246.614 145.919 246.614 126.41 246.614 122.807 246.614 110.133 246.614 104.455"/>
      </g>
      <path d="M269.76,103.99c4.411-2.835,9.481-4.253,15.21-4.253,10.482,0,15.722,5.557,15.722,16.668v29.514h-6.83v-7.088h-.258c-3.122,5.441-7.749,8.163-13.878,8.163-4.411,0-7.911-1.181-10.503-3.545-2.591-2.362-3.887-5.52-3.887-9.473,0-8.392,4.955-13.276,14.866-14.65l13.618-1.977c0-7.848-3.122-11.772-9.364-11.772-5.498,0-10.398,1.875-14.695,5.627v-7.217.002ZM282.78,124.482c-3.523.458-6.13,1.318-7.819,2.577s-2.534,3.408-2.534,6.444c0,2.292.807,4.139,2.426,5.541,1.617,1.404,3.744,2.106,6.38,2.106,3.637,0,6.644-1.288,9.021-3.867s3.564-5.815,3.564-9.71v-4.554l-11.039,1.461v.002Z"/>
      <path d="M349.359,145.919h-6.832v-25.778c0-9.766-3.564-14.65-10.697-14.65-3.666,0-6.71,1.382-9.129,4.147-2.421,2.765-3.629,6.278-3.629,10.546v25.735h-6.832v-45.152h6.832v7.561h.172c3.379-5.729,8.319-8.593,14.821-8.593,4.955,0,8.744,1.59,11.364,4.769,2.622,3.179,3.932,7.79,3.932,13.833v27.58l-.002.002Z"/>
      <path d="M358.071,136.726c3.951,2.921,8.292,4.382,13.016,4.382,6.415,0,9.624-2.162,9.624-6.487,0-1.861-.7-3.4-2.104-4.618s-4.167-2.6-8.29-4.147c-4.757-1.891-7.969-3.809-9.647-5.756-1.674-1.947-2.512-4.411-2.512-7.389,0-3.838,1.662-6.961,4.984-9.366s7.373-3.609,12.16-3.609c3.836,0,7.301.673,10.394,2.02v7.088c-3.349-2.176-7.174-3.265-11.469-3.265-2.808,0-5.011.624-6.616,1.869-1.603,1.247-2.405,2.8-2.405,4.661,0,2.004.594,3.537,1.783,4.597,1.187,1.06,3.774,2.378,7.754,3.952,5.385,2.09,8.892,4.139,10.527,6.143,1.631,2.004,2.448,4.397,2.448,7.174,0,4.01-1.654,7.182-4.962,9.516-3.306,2.335-7.539,3.502-12.695,3.502-4.669,0-8.664-.917-11.986-2.749v-7.518l-.002.002Z"/>
      <path d="M242.24,198.562c-3.551,2.118-7.633,3.177-12.244,3.177-6.302,0-11.442-2.063-15.423-6.186s-5.971-9.592-5.971-16.41c0-7.477,2.112-13.456,6.337-17.937,4.225-4.483,9.874-6.724,16.948-6.724,3.895,0,7.361.731,10.396,2.192v7.131c-3.381-2.378-6.974-3.566-10.783-3.566-4.61,0-8.429,1.67-11.448,5.007-3.023,3.336-4.532,7.77-4.532,13.296,0,5.271,1.382,9.489,4.145,12.654,2.765,3.164,6.552,4.747,11.364,4.747,3.981,0,7.719-1.318,11.213-3.952v6.573l-.002-.002Z"/>
      <path d="M247.988,178.669c0-7.504,2.041-13.409,6.124-17.72,4.081-4.311,9.657-6.468,16.733-6.468,6.587,0,11.778,2.071,15.575,6.21,3.793,4.137,5.692,9.901,5.692,17.292,0,7.16-2.049,12.91-6.145,17.249-4.096,4.339-9.493,6.507-16.195,6.507-6.558,0-11.829-2.118-15.81-6.358-3.981-4.237-5.973-9.809-5.973-16.711h0ZM254.906,178.368c0,5.328,1.396,9.588,4.19,12.781,2.792,3.195,6.509,4.79,11.149,4.79,4.812,0,8.499-1.539,11.061-4.618,2.565-3.078,3.846-7.453,3.846-13.125s-1.288-10.116-3.867-13.253c-2.577-3.136-6.259-4.704-11.039-4.704-4.671,0-8.394,1.619-11.17,4.855-2.78,3.236-4.169,7.663-4.169,13.274Z"/>
      <path d="M298.717,191.472c3.951,2.921,8.292,4.382,13.016,4.382,6.415,0,9.624-2.161,9.624-6.487,0-1.859-.7-3.4-2.104-4.616-1.404-1.218-4.167-2.6-8.29-4.147-4.757-1.891-7.969-3.807-9.647-5.754-1.674-1.947-2.512-4.411-2.512-7.389,0-3.84,1.662-6.963,4.984-9.367s7.373-3.609,12.16-3.609c3.836,0,7.301.675,10.394,2.02v7.088c-3.349-2.176-7.174-3.265-11.469-3.265-2.808,0-5.011.624-6.616,1.869-1.603,1.247-2.405,2.8-2.405,4.661,0,2.006.594,3.539,1.783,4.599,1.187,1.06,3.774,2.378,7.754,3.952,5.385,2.09,8.892,4.139,10.527,6.145,1.631,2.004,2.448,4.395,2.448,7.174,0,4.01-1.654,7.182-4.962,9.516-3.306,2.333-7.539,3.5-12.695,3.5-4.669,0-8.664-.917-11.986-2.749v-7.518l-.002-.002Z"/>
      <path d="M401.086,200.666h-6.83v-25.907c0-5.297-.794-9.043-2.385-11.233-1.588-2.192-4.217-3.289-7.882-3.289-3.093,0-5.75,1.455-7.969,4.36-2.221,2.907-3.33,6.337-3.33,10.29v25.778h-6.789v-26.849c0-9.053-3.494-13.577-10.482-13.577-3.179,0-5.829,1.369-7.948,4.104s-3.177,6.251-3.177,10.548v25.778h-6.832v-45.154h6.832v7.176h.172c3.148-5.471,7.803-8.206,13.962-8.206,2.921,0,5.549.839,7.883,2.514,2.333,1.674,3.957,3.973,4.874,6.894,3.353-6.272,8.351-9.409,14.995-9.409,9.938,0,14.907,6.13,14.907,18.387v27.797l-.002-.004Z"/>
      <path d="M409.627,178.669c0-7.504,2.041-13.409,6.124-17.72,4.081-4.311,9.657-6.468,16.733-6.468,6.587,0,11.778,2.071,15.575,6.21,3.793,4.137,5.692,9.901,5.692,17.292,0,7.16-2.049,12.91-6.145,17.249-4.096,4.339-9.493,6.507-16.195,6.507-6.558,0-11.829-2.118-15.81-6.358-3.981-4.237-5.973-9.809-5.973-16.711ZM416.544,178.368c0,5.328,1.396,9.588,4.19,12.781,2.792,3.195,6.509,4.79,11.149,4.79,4.812,0,8.499-1.539,11.061-4.618,2.565-3.078,3.846-7.453,3.846-13.125s-1.288-10.116-3.867-13.253c-2.577-3.136-6.259-4.704-11.039-4.704-4.671,0-8.394,1.619-11.17,4.855-2.78,3.236-4.169,7.663-4.169,13.274Z"/>
      <path d="M460.355,191.472c3.951,2.921,8.292,4.382,13.016,4.382,6.415,0,9.624-2.161,9.624-6.487,0-1.859-.7-3.4-2.104-4.616-1.404-1.218-4.167-2.6-8.29-4.147-4.757-1.891-7.969-3.807-9.647-5.754-1.674-1.947-2.512-4.411-2.512-7.389,0-3.84,1.662-6.963,4.984-9.367s7.373-3.609,12.16-3.609c3.836,0,7.301.675,10.394,2.02v7.088c-3.349-2.176-7.174-3.265-11.469-3.265-2.808,0-5.011.624-6.616,1.869-1.603,1.247-2.405,2.8-2.405,4.661,0,2.006.594,3.539,1.783,4.599,1.187,1.06,3.774,2.378,7.754,3.952,5.385,2.09,8.892,4.139,10.527,6.145,1.631,2.004,2.448,4.395,2.448,7.174,0,4.01-1.654,7.182-4.962,9.516-3.306,2.333-7.539,3.5-12.695,3.5-4.669,0-8.664-.917-11.986-2.749v-7.518l-.002-.002Z"/>
    </g>
    <g>
      <path class="st3" d="M302.866,223.116v6.701h-1.67v-16.119h1.67v1.951h.041c.876-1.47,2.151-2.204,3.822-2.204,1.402,0,2.507.491,3.318,1.474.813.983,1.218,2.309,1.218,3.975,0,1.861-.456,3.345-1.369,4.446-.915,1.103-2.137,1.656-3.672,1.656-1.433,0-2.54-.628-3.318-1.881h-.041ZM302.866,220.259c0,.917.307,1.699.921,2.346s1.376.972,2.295.972c1.085,0,1.936-.416,2.557-1.251.618-.833.931-1.994.931-3.486,0-1.224-.293-2.196-.878-2.913s-1.363-1.077-2.337-1.077c-1.015,0-1.848.362-2.503,1.083s-.983,1.631-.983,2.729v1.595l-.004.002Z"/>
      <path class="st3" d="M322.678,219.629h-7.823c.035,1.273.375,2.249,1.023,2.925s1.515,1.015,2.608,1.015c1.261,0,2.409-.418,3.445-1.251v1.595c-.985.721-2.264,1.083-3.832,1.083-1.554,0-2.771-.51-3.648-1.529-.878-1.019-1.318-2.426-1.318-4.225,0-1.674.481-3.058,1.447-4.155s2.164-1.642,3.594-1.642,2.536.465,3.322,1.402c.788.935,1.181,2.229,1.181,3.879v.903h.002ZM320.955,218.159c0-1.028-.246-1.834-.741-2.415-.493-.581-1.181-.87-2.065-.87-.833,0-1.55.297-2.153.897-.602.598-.976,1.394-1.124,2.389h6.081l.002-.002Z"/>
      <path class="st3" d="M324.406,219.356c0-1.834.499-3.279,1.496-4.333.999-1.054,2.362-1.58,4.092-1.58,1.609,0,2.878.504,3.805,1.515s1.392,2.421,1.392,4.227c0,1.752-.501,3.156-1.502,4.215-1.003,1.062-2.323,1.592-3.959,1.592-1.603,0-2.892-.52-3.865-1.554-.974-1.036-1.459-2.399-1.459-4.086v.004ZM326.096,219.283c0,1.302.342,2.342,1.023,3.124.684.78,1.59,1.171,2.726,1.171,1.177,0,2.078-.375,2.706-1.128s.938-1.822.938-3.209c0-1.394-.315-2.475-.944-3.24-.63-.768-1.529-1.152-2.7-1.152-1.14,0-2.051.397-2.729,1.187s-1.019,1.873-1.019,3.246Z"/>
      <path class="st3" d="M339.469,223.116v6.701h-1.67v-16.119h1.67v1.951h.041c.876-1.47,2.151-2.204,3.822-2.204,1.402,0,2.507.491,3.318,1.474.813.983,1.218,2.309,1.218,3.975,0,1.861-.456,3.345-1.369,4.446-.915,1.103-2.137,1.656-3.672,1.656-1.433,0-2.54-.628-3.318-1.881h-.041ZM339.469,220.259c0,.917.307,1.699.921,2.346s1.376.972,2.295.972c1.085,0,1.936-.416,2.557-1.251.618-.833.931-1.994.931-3.486,0-1.224-.293-2.196-.878-2.913s-1.363-1.077-2.337-1.077c-1.015,0-1.848.362-2.503,1.083s-.983,1.631-.983,2.729v1.595l-.004.002Z"/>
      <path class="st3" d="M350.493,224.733v-16.33h1.658v16.33h-1.658Z"/>
      <path class="st3" d="M364.338,219.629h-7.823c.035,1.273.375,2.249,1.023,2.925s1.515,1.015,2.608,1.015c1.261,0,2.409-.418,3.445-1.251v1.595c-.985.721-2.264,1.083-3.832,1.083-1.554,0-2.771-.51-3.648-1.529-.878-1.019-1.318-2.426-1.318-4.225,0-1.674.481-3.058,1.447-4.155s2.164-1.642,3.594-1.642,2.536.465,3.322,1.402c.788.935,1.181,2.229,1.181,3.879v.903h.002ZM362.615,218.159c0-1.028-.246-1.834-.741-2.415-.493-.581-1.181-.87-2.065-.87-.833,0-1.55.297-2.153.897-.602.598-.976,1.394-1.124,2.389h6.081l.002-.002Z"/>
      <path class="st3" d="M377.07,222.56c-1.527,1.615-3.381,2.424-5.557,2.424-1.603,0-2.87-.395-3.801-1.187-.933-.79-1.396-1.871-1.396-3.244,0-2.135,1.193-3.717,3.58-4.747-1.189-.895-1.785-1.979-1.785-3.244,0-1.087.368-1.947,1.103-2.585.733-.635,1.689-.954,2.866-.954,1.113,0,2.016.301,2.71.903s1.038,1.39,1.038,2.362c0,1.619-.989,2.821-2.972,3.613,1.541.589,2.986,1.936,4.339,4.043,1.169-1.693,1.752-3.629,1.752-5.809,0-.454-.063-.946-.19-1.48h1.648c.084.358.125.833.125,1.427,0,2.407-.829,4.81-2.487,7.205.637.89,1.142,1.464,1.511,1.728.37.262.798.393,1.281.393.252,0,.686-.102,1.302-.303v1.586c-.491.197-1.019.293-1.586.293-.63,0-1.189-.147-1.676-.442s-1.091-.956-1.811-1.985h.004ZM376.261,221.299c-.952-1.486-1.775-2.536-2.467-3.15-.694-.616-1.562-1.116-2.604-1.504-1.157.448-1.975.976-2.46,1.582-.481.606-.723,1.359-.723,2.262,0,.925.321,1.66.96,2.205.641.546,1.486.819,2.536.819,1.891,0,3.476-.739,4.759-2.215h0ZM371.494,215.185c1.84-.643,2.763-1.556,2.763-2.739,0-.643-.211-1.15-.635-1.517s-.937-.549-1.539-.549c-.721,0-1.298.197-1.732.592-.436.395-.653.923-.653,1.582,0,1.099.6,1.979,1.797,2.636v-.004Z"/>
      <path class="st3" d="M389.185,224.627c-.42.231-.956.346-1.605.346-1.899,0-2.847-1.068-2.847-3.203v-6.638h-1.912v-1.437h1.912v-2.712l1.66-.534v3.246h2.794v1.437h-2.794v6.333c0,.774.129,1.32.389,1.627.258.307.678.461,1.261.461.44,0,.821-.121,1.144-.368v1.437l-.002.004Z"/>
      <path class="st3" d="M399.962,219.629h-7.823c.035,1.273.375,2.249,1.023,2.925s1.515,1.015,2.608,1.015c1.261,0,2.409-.418,3.445-1.251v1.595c-.985.721-2.264,1.083-3.832,1.083-1.554,0-2.771-.51-3.648-1.529-.878-1.019-1.318-2.426-1.318-4.225,0-1.674.481-3.058,1.447-4.155s2.164-1.642,3.594-1.642,2.536.465,3.322,1.402c.788.935,1.181,2.229,1.181,3.879v.903h.002ZM398.239,218.159c0-1.028-.246-1.834-.741-2.415-.493-.581-1.181-.87-2.065-.87-.833,0-1.55.297-2.153.897-.602.598-.976,1.394-1.124,2.389h6.081l.002-.002Z"/>
      <path class="st3" d="M409.912,224.216c-.868.52-1.865.778-2.993.778-1.539,0-2.796-.504-3.77-1.511s-1.459-2.346-1.459-4.014c0-1.826.516-3.289,1.549-4.384s2.413-1.642,4.141-1.642c.952,0,1.801.178,2.544.534v1.744c-.827-.581-1.705-.872-2.638-.872-1.126,0-2.061.409-2.8,1.224s-1.107,1.9-1.107,3.252c0,1.287.338,2.319,1.015,3.091s1.599,1.161,2.776,1.161c.974,0,1.889-.323,2.741-.966v1.605h0Z"/>
      <path class="st3" d="M421.438,224.733h-1.66v-6.364c0-2.344-.874-3.519-2.626-3.519-.874,0-1.613.34-2.215,1.019-.604.68-.905,1.55-.905,2.616v6.247h-1.67v-16.33h1.67v7.14h.041c.849-1.402,2.059-2.1,3.635-2.1,2.485,0,3.727,1.498,3.727,4.495v6.794l.004.002Z"/>
      <path class="st3" d="M433.647,224.733h-1.67v-6.302c0-2.387-.872-3.582-2.616-3.582-.895,0-1.64.338-2.233,1.015s-.888,1.535-.888,2.579v6.29h-1.67v-11.037h1.67v1.848h.041c.827-1.402,2.035-2.1,3.625-2.1,1.21,0,2.137.387,2.778,1.165.639.776.96,1.904.96,3.381v6.742l.002.002Z"/>
      <path class="st3" d="M436.026,219.356c0-1.834.499-3.279,1.496-4.333.999-1.054,2.362-1.58,4.092-1.58,1.609,0,2.878.504,3.805,1.515s1.392,2.421,1.392,4.227c0,1.752-.501,3.156-1.502,4.215-1.003,1.062-2.323,1.592-3.959,1.592-1.603,0-2.892-.52-3.865-1.554-.974-1.036-1.459-2.399-1.459-4.086v.004ZM437.715,219.283c0,1.302.342,2.342,1.023,3.124.684.78,1.59,1.171,2.726,1.171,1.177,0,2.078-.375,2.706-1.128s.938-1.822.938-3.209c0-1.394-.315-2.475-.944-3.24-.63-.768-1.529-1.152-2.7-1.152-1.14,0-2.051.397-2.729,1.187s-1.019,1.873-1.019,3.246Z"/>
      <path class="st3" d="M449.431,224.733v-16.33h1.658v16.33h-1.658Z"/>
      <path class="st3" d="M453.731,219.356c0-1.834.499-3.279,1.496-4.333.999-1.054,2.362-1.58,4.092-1.58,1.609,0,2.878.504,3.805,1.515s1.392,2.421,1.392,4.227c0,1.752-.501,3.156-1.502,4.215-1.003,1.062-2.323,1.592-3.959,1.592-1.603,0-2.892-.52-3.865-1.554-.974-1.036-1.459-2.399-1.459-4.086v.004ZM455.422,219.283c0,1.302.342,2.342,1.023,3.124.684.78,1.59,1.171,2.726,1.171,1.177,0,2.078-.375,2.706-1.128s.938-1.822.938-3.209c0-1.394-.315-2.475-.944-3.24-.63-.768-1.529-1.152-2.7-1.152-1.14,0-2.051.397-2.729,1.187s-1.019,1.873-1.019,3.246Z"/>
      <path class="st3" d="M476.448,223.862c0,4.045-1.914,6.069-5.744,6.069-1.345,0-2.54-.262-3.582-.786v-1.701c1.232.692,2.423,1.04,3.57,1.04,2.737,0,4.106-1.468,4.106-4.401v-1.228h-.041c-.866,1.427-2.139,2.143-3.811,2.143-1.365,0-2.467-.495-3.306-1.482s-1.261-2.299-1.261-3.938c0-1.885.454-3.379,1.363-4.479.911-1.103,2.137-1.654,3.678-1.654,1.498,0,2.61.602,3.338,1.807h.041v-1.554h1.65v10.165ZM474.8,218.085c0-.895-.307-1.658-.925-2.288-.614-.63-1.363-.946-2.245-.946-1.107,0-1.977.409-2.61,1.224s-.95,1.942-.95,3.379c0,1.245.305,2.245.919,2.997s1.41,1.128,2.391,1.128c.993,0,1.812-.362,2.456-1.083.645-.72.966-1.631.966-2.729v-1.68l-.002-.002Z"/>
      <path class="st3" d="M488.51,213.695l-5.115,12.863c-.895,2.247-2.145,3.371-3.748,3.371-.377,0-.743-.041-1.093-.125v-1.521c.358.119.696.178,1.019.178.897,0,1.57-.538,2.016-1.615l.905-2.133-4.307-11.016h1.848l3.048,8.611c.02.055.098.317.229.786h.053l.209-.768,3.205-8.63h1.732Z"/>
    </g>
    <g>
      <path class="st2" d="M119.344,222.174c-41.94,0-76.06-34.121-76.06-76.061s34.12-76.06,76.06-76.06,76.061,34.12,76.061,76.06-34.121,76.061-76.061,76.061ZM119.344,72.985c-40.323,0-73.127,32.805-73.127,73.127s32.805,73.127,73.127,73.127,73.127-32.805,73.127-73.127-32.805-73.127-73.127-73.127Z"/>
      <path class="st2" d="M116.658,222.125c-.259,0-.554-.069-.777-.199-25.559-14.886-41.436-43.938-41.436-75.821s15.862-60.896,41.396-75.799c.225-.131.479-.2.739-.2.81,0,1.476.656,1.476,1.466,0,.599-.354,1.114-.865,1.342-24.56,14.402-39.813,42.433-39.813,73.191s15.29,58.872,39.911,73.246c.481.243.817.737.817,1.308,0,.81-.637,1.467-1.447,1.467Z"/>
      <path class="st2" d="M122.054,222.125c-.81,0-1.486-.657-1.486-1.467,0-.624.377-1.156.921-1.368,24.56-14.393,39.806-42.414,39.806-73.185s-15.283-58.846-39.888-73.235c-.468-.246-.79-.734-.79-1.297,0-.81.646-1.466,1.457-1.466h.02c.26,0,.515.069.739.2,25.534,14.903,41.396,43.948,41.396,75.799s-15.878,60.935-41.437,75.821c-.224.13-.479.199-.738.199Z"/>
      <path class="st2" d="M119.344,221.981c-.81,0-1.466-.657-1.466-1.467V71.519c0-.81.656-1.466,1.466-1.466s1.466.656,1.466,1.466v148.996c0,.81-.656,1.467-1.466,1.467Z"/>
      <path class="st2" d="M183.544,109.274H55.327c-.81,0-1.466-.656-1.466-1.466s.656-1.466,1.466-1.466h128.217c.81,0,1.467.656,1.467,1.466s-.657,1.466-1.467,1.466Z"/>
      <path class="st2" d="M193.937,147.579H44.75c-.81,0-1.466-.656-1.466-1.466s.656-1.466,1.466-1.466h149.186c.81,0,1.467.656,1.467,1.466s-.657,1.466-1.467,1.466Z"/>
      <path class="st2" d="M183.544,185.046H54.836c-.81,0-1.466-.657-1.466-1.467s.656-1.467,1.466-1.467h128.708c.81,0,1.467.657,1.467,1.467s-.657,1.467-1.467,1.467Z"/>
    </g>
    <path class="st0" d="M101.178,116.939s-65.017,18.144-65.868,44.988c-.282,8.894,6.65,16.778,14.637,23.033-19.509-7.137-40.066-17.208-39.947-29.06.246-24.702,91.178-38.962,91.178-38.962v.002Z"/>
    <path class="st0" d="M155.643,230.344s29.62-8.267,30.007-20.495c.129-4.051-3.029-7.643-6.669-10.494,8.888,3.252,18.254,7.838,18.199,13.239-.113,11.254-41.539,17.75-41.539,17.75h.002Z"/>
    <polygon class="st0" points="174.816 90.106 157.651 94.112 149.244 94.941 149.457 93.889 151.864 82.13 144.579 91.67 143.11 93.586 138.666 85.231 130.411 69.656 134.417 86.821 136.484 95.713 134.806 95.373 123.046 92.966 132.587 100.251 133.975 101.315 125.535 105.808 109.961 114.063 127.126 110.055 136.552 107.865 136.177 109.722 133.77 121.481 141.055 111.942 141.843 110.913 146.111 118.937 154.366 134.511 150.36 117.346 148.116 107.691 150.827 108.236 162.586 110.645 153.047 103.36 151.735 102.355 159.243 98.361 174.816 90.106"/>
  </g>
</svg>